HighlandSans-BoldItalic.ufo
<glyph name="quotedbl" format="1">
  <advance width="1228"/>
  <unicode hex="0022"/>
  <outline>
    <contour>
      <point x="410" y="1209" type="line" smooth="yes"/>
      <point x="380" y="1209"/>
      <point x="362" y="1194"/>
      <point x="360" y="1159" type="curve" smooth="yes"/>
      <point x="330" y="679" type="line" smooth="yes"/>
      <point x="327" y="638"/>
      <point x="348" y="611"/>
      <point x="421" y="611" type="curve" smooth="yes"/>
      <point x="492" y="611"/>
      <point x="524" y="637"/>
      <point x="536" y="679" type="curve" smooth="yes"/>
      <point x="676" y="1159" type="line" smooth="yes"/>
      <point x="686" y="1194"/>
      <point x="674" y="1209"/>
      <point x="644" y="1209" type="curve" smooth="yes"/>
    </contour>
    <contour>
      <point x="870" y="1209" type="line" smooth="yes"/>
      <point x="840" y="1209"/>
      <point x="822" y="1194"/>
      <point x="820" y="1159" type="curve" smooth="yes"/>
      <point x="790" y="679" type="line" smooth="yes"/>
      <point x="787" y="638"/>
      <point x="808" y="611"/>
      <point x="881" y="611" type="curve" smooth="yes"/>
      <point x="952" y="611"/>
      <point x="984" y="637"/>
      <point x="996" y="679" type="curve" smooth="yes"/>
      <point x="1136" y="1159" type="line" smooth="yes"/>
      <point x="1146" y="1194"/>
      <point x="1134" y="1209"/>
      <point x="1104" y="1209" type="curve" smooth="yes"/>
    </contour>
  </outline>
</glyph>
<glyph name="quotesingle" format="1">
  <advance width="1228"/>
  <unicode hex="0027"/>
  <outline>
    <contour>
      <point x="640" y="1209" type="line" smooth="yes"/>
      <point x="610" y="1209"/>
      <point x="592" y="1194"/>
      <point x="590" y="1159" type="curve" smooth="yes"/>
      <point x="560" y="679" type="line" smooth="yes"/>
      <point x="557" y="638"/>
      <point x="578" y="611"/>
      <point x="651" y="611" type="curve" smooth="yes"/>
      <point x="722" y="611"/>
      <point x="754" y="637"/>
      <point x="766" y="679" type="curve" smooth="yes"/>
      <point x="906" y="1159" type="line" smooth="yes"/>
      <point x="916" y="1194"/>
      <point x="904" y="1209"/>
      <point x="874" y="1209" type="curve" smooth="yes"/>
    </contour>
  </outline>
</glyph>
<glyph name="asterisk" format="1">
  <advance width="1228"/>
  <unicode hex="002A"/>
  <outline>
    <contour>
      <point x="839" y="1209"/>
      <point x="875" y="1136"/>
      <point x="845" y="1062" type="curve" smooth="yes"/>
      <point x="702" y="709" type="line"/>
      <point x="636" y="709" type="line"/>
      <point x="616" y="1075" type="line" smooth="yes"/>
      <point x="612" y="1149"/>
      <point x="655" y="1209"/>
      <point x="747" y="1209" type="curve" smooth="yes"/>
    </contour>
    <contour>
      <point x="1136" y="812"/>
      <point x="1078" y="755"/>
      <point x="996" y="748" type="curve" smooth="yes"/>
      <point x="622" y="715" type="line"/>
      <point x="614" y="778" type="line"/>
      <point x="955" y="964" type="line" smooth="yes"/>
      <point x="1027" y="1003"/>
      <point x="1094" y="985"/>
      <point x="1115" y="899" type="curve" smooth="yes"/>
    </contour>
    <contour>
      <point x="803" y="365"/>
      <point x="743" y="391"/>
      <point x="723" y="460" type="curve" smooth="yes"/>
      <point x="627" y="790" type="line"/>
      <point x="687" y="829" type="line"/>
      <point x="924" y="587" type="line" smooth="yes"/>
      <point x="972" y="537"/>
      <point x="975" y="455"/>
      <point x="887" y="409" type="curve" smooth="yes"/>
    </contour>
    <contour>
      <point x="303" y="479"/>
      <point x="318" y="557"/>
      <point x="384" y="607" type="curve" smooth="yes"/>
      <point x="705" y="849" type="line"/>
      <point x="753" y="810" type="line"/>
      <point x="554" y="466" type="line" smooth="yes"/>
      <point x="512" y="394"/>
      <point x="436" y="370"/>
      <point x="369" y="425" type="curve" smooth="yes"/>
    </contour>
    <contour>
      <point x="320" y="999"/>
      <point x="409" y="1017"/>
      <point x="467" y="978" type="curve" smooth="yes"/>
      <point x="750" y="788" type="line"/>
      <point x="718" y="725" type="line"/>
      <point x="366" y="757" type="line" smooth="yes"/>
      <point x="291" y="764"/>
      <point x="251" y="820"/>
      <point x="286" y="911" type="curve" smooth="yes"/>
    </contour>
  </outline>
</glyph>
<glyph name="comma" format="1">
  <advance width="1228"/>
  <unicode hex="002C"/>
  <outline>
    <contour>
      <point x="778" y="291" type="line" smooth="yes"/>
      <point x="800" y="326"/>
      <point x="790" y="354"/>
      <point x="757" y="354" type="curve" smooth="yes"/>
      <point x="478" y="354" type="line" smooth="yes"/>
      <point x="450" y="354"/>
      <point x="427" y="340"/>
      <point x="419" y="314" type="curve" smooth="yes"/>
      <point x="248" y="-228" type="line" smooth="yes"/>
      <point x="234" y="-272"/>
      <point x="266" y="-294"/>
      <point x="322" y="-294" type="curve" smooth="yes"/>
      <point x="380" y="-294"/>
      <point x="420" y="-277"/>
      <point x="440" y="-245" type="curve" smooth="yes"/>
    </contour>
  </outline>
</glyph>
<glyph name="zero" format="1">
  <advance width="1228"/>
  <unicode hex="0030"/>
  <outline>
    <contour>
      <point x="475" y="215"/>
      <point x="416" y="291"/>
      <point x="416" y="439" type="curve" smooth="yes"/>
      <point x="416" y="555"/>
      <point x="452" y="735"/>
      <point x="517" y="844" type="curve" smooth="yes"/>
      <point x="568" y="930"/>
      <point x="637" y="972"/>
      <point x="717" y="972" type="curve" smooth="yes"/>
      <point x="822" y="972"/>
      <point x="881" y="896"/>
      <point x="881" y="748" type="curve" smooth="yes"/>
      <point x="881" y="632"/>
      <point x="845" y="452"/>
      <point x="780" y="343" type="curve" smooth="yes"/>
      <point x="729" y="257"/>
      <point x="660" y="215"/>
      <point x="580" y="215" type="curve" smooth="yes"/>
    </contour>
    <contour>
      <point x="555" y="1209"/>
      <point x="408" y="1123"/>
      <point x="310" y="975" type="curve" smooth="yes"/>
      <point x="212" y="827"/>
      <point x="158" y="621"/>
      <point x="158" y="447" type="curve" smooth="yes"/>
      <point x="158" y="169"/>
      <point x="300" y="-22"/>
      <point x="555" y="-22" type="curve" smooth="yes"/>
      <point x="742" y="-22"/>
      <point x="889" y="64"/>
      <point x="987" y="212" type="curve" smooth="yes"/>
      <point x="1085" y="360"/>
      <point x="1139" y="566"/>
      <point x="1139" y="740" type="curve" smooth="yes"/>
      <point x="1139" y="1018"/>
      <point x="997" y="1209"/>
      <point x="742" y="1209" type="curve" smooth="yes"/>
    </contour>
  </outline>
</glyph>
<glyph name="one" format="1">
  <advance width="1228"/>
  <unicode hex="0031"/>
  <outline>
    <contour>
      <point x="364" y="1054" type="line" smooth="yes"/>
      <point x="320" y="1039"/>
      <point x="305" y="1009"/>
      <point x="324" y="920" type="curve" smooth="yes"/>
      <point x="342" y="836"/>
      <point x="365" y="821"/>
      <point x="409" y="836" type="curve" smooth="yes"/>
      <point x="607" y="903" type="line"/>
      <point x="488.79" y="225" type="line"/>
      <point x="263" y="225" type="line" smooth="yes"/>
      <point x="218" y="225"/>
      <point x="194" y="205"/>
      <point x="179" y="112" type="curve" smooth="yes"/>
      <point x="164" y="19"/>
      <point x="178" y="0"/>
      <point x="223" y="0" type="curve" smooth="yes"/>
      <point x="955" y="0" type="line" smooth="yes"/>
      <point x="1000" y="0"/>
      <point x="1022" y="19"/>
      <point x="1037" y="112" type="curve" smooth="yes"/>
      <point x="1052" y="205"/>
      <point x="1040" y="225"/>
      <point x="995" y="225" type="curve" smooth="yes"/>
      <point x="738.803" y="225" type="line"/>
      <point x="897" y="1128" type="line" smooth="yes"/>
      <point x="910" y="1198"/>
      <point x="870" y="1227"/>
      <point x="805" y="1205" type="curve" smooth="yes"/>
    </contour>
  </outline>
</glyph>
<glyph name="two" format="1">
  <advance width="1228"/>
  <unicode hex="0032"/>
  <outline>
    <contour>
      <point x="290" y="1092"/>
      <point x="277" y="1051"/>
      <point x="303" y="975" type="curve" smooth="yes"/>
      <point x="330" y="895"/>
      <point x="359" y="874"/>
      <point x="404" y="894" type="curve"/>
      <point x="509" y="942"/>
      <point x="604" y="972"/>
      <point x="693" y="972" type="curve" smooth="yes"/>
      <point x="783" y="972"/>
      <point x="829" y="922"/>
      <point x="829" y="850" type="curve" smooth="yes"/>
      <point x="829" y="769"/>
      <point x="772" y="705"/>
      <point x="643" y="596" type="curve" smooth="yes"/>
      <point x="181" y="206" type="line" smooth="yes"/>
      <point x="160" y="189"/>
      <point x="147" y="157"/>
      <point x="141" y="103" type="curve" smooth="yes"/>
      <point x="132" y="18"/>
      <point x="145" y="0"/>
      <point x="190" y="0" type="curve" smooth="yes"/>
      <point x="926" y="0" type="line" smooth="yes"/>
      <point x="971" y="0"/>
      <point x="992" y="22"/>
      <point x="1009" y="117" type="curve" smooth="yes"/>
      <point x="1026" y="212"/>
      <point x="1012" y="235"/>
      <point x="967" y="235" type="curve" smooth="yes"/>
      <point x="569" y="235" type="line"/>
      <point x="840" y="455" type="line" smooth="yes"/>
      <point x="1005" y="589"/>
      <point x="1088" y="706"/>
      <point x="1088" y="875" type="curve" smooth="yes"/>
      <point x="1088" y="1075"/>
      <point x="958" y="1209"/>
      <point x="718" y="1209" type="curve" smooth="yes"/>
      <point x="585" y="1209"/>
      <point x="454" y="1175"/>
      <point x="336" y="1115" type="curve"/>
    </contour>
  </outline>
</glyph>
<glyph name="three" format="1">
  <advance width="1228"/>
  <unicode hex="0033"/>
  <outline>
    <contour>
      <point x="590" y="1209"/>
      <point x="454" y="1183"/>
      <point x="351" y="1132" type="curve" smooth="yes"/>
      <point x="312" y="1113"/>
      <point x="296" y="1075"/>
      <point x="321" y="998" type="curve" smooth="yes"/>
      <point x="347" y="926"/>
      <point x="381" y="909"/>
      <point x="412" y="922" type="curve" smooth="yes"/>
      <point x="500" y="959"/>
      <point x="600" y="982"/>
      <point x="695" y="982" type="curve" smooth="yes"/>
      <point x="791" y="982"/>
      <point x="840" y="947"/>
      <point x="840" y="875" type="curve" smooth="yes"/>
      <point x="840" y="798"/>
      <point x="790" y="723"/>
      <point x="638" y="723" type="curve" smooth="yes"/>
      <point x="562" y="723" type="line" smooth="yes"/>
      <point x="517" y="723"/>
      <point x="494" y="699"/>
      <point x="479" y="610" type="curve" smooth="yes"/>
      <point x="464" y="521"/>
      <point x="477" y="498"/>
      <point x="522" y="498" type="curve" smooth="yes"/>
      <point x="625" y="498" type="line" smooth="yes"/>
      <point x="722" y="498"/>
      <point x="774" y="462"/>
      <point x="774" y="391" type="curve" smooth="yes"/>
      <point x="774" y="302"/>
      <point x="717" y="215"/>
      <point x="540" y="215" type="curve" smooth="yes"/>
      <point x="443" y="215"/>
      <point x="351" y="241"/>
      <point x="273" y="278" type="curve" smooth="yes"/>
      <point x="245" y="291"/>
      <point x="210" y="276"/>
      <point x="174" y="193" type="curve" smooth="yes"/>
      <point x="139" y="112"/>
      <point x="146" y="72"/>
      <point x="180" y="55" type="curve" smooth="yes"/>
      <point x="273" y="8"/>
      <point x="395" y="-22"/>
      <point x="534" y="-22" type="curve" smooth="yes"/>
      <point x="909" y="-22"/>
      <point x="1039" y="196"/>
      <point x="1039" y="392" type="curve" smooth="yes"/>
      <point x="1039" y="493"/>
      <point x="990" y="570"/>
      <point x="908" y="612" type="curve"/>
      <point x="1036" y="673"/>
      <point x="1097" y="784"/>
      <point x="1097" y="912" type="curve" smooth="yes"/>
      <point x="1097" y="1100"/>
      <point x="960" y="1209"/>
      <point x="717" y="1209" type="curve" smooth="yes"/>
    </contour>
  </outline>
</glyph>
<glyph name="six" format="1">
  <advance width="1228"/>
  <unicode hex="0036"/>
  <outline>
    <contour>
      <point x="892" y="-22"/>
      <point x="1071" y="190"/>
      <point x="1071" y="420" type="curve" smooth="yes"/>
      <point x="1071" y="605"/>
      <point x="944" y="741"/>
      <point x="745" y="741" type="curve" smooth="yes"/>
      <point x="630" y="741"/>
      <point x="542" y="703"/>
      <point x="461" y="634" type="curve"/>
      <point x="536" y="852"/>
      <point x="701" y="959"/>
      <point x="1068" y="967" type="curve" smooth="yes"/>
      <point x="1099" y="968"/>
      <point x="1121" y="1007"/>
      <point x="1121" y="1096" type="curve" smooth="yes"/>
      <point x="1121" y="1175"/>
      <point x="1105" y="1210"/>
      <point x="1069" y="1209" type="curve"/>
      <point x="777" y="1203"/>
      <point x="564" y="1128"/>
      <point x="417" y="993" type="curve" smooth="yes"/>
      <point x="234" y="824"/>
      <point x="175" y="572"/>
      <point x="175" y="398" type="curve" smooth="yes"/>
      <point x="175" y="314"/>
      <point x="189" y="239"/>
      <point x="215" y="186" type="curve" smooth="yes"/>
      <point x="275" y="61"/>
      <point x="387" y="-22"/>
      <point x="566" y="-22" type="curve" smooth="yes"/>
    </contour>
    <contour>
      <point x="488" y="201"/>
      <point x="432" y="263"/>
      <point x="432" y="340" type="curve" smooth="yes"/>
      <point x="432" y="440"/>
      <point x="518" y="529"/>
      <point x="660" y="529" type="curve" smooth="yes"/>
      <point x="760" y="529"/>
      <point x="817" y="482"/>
      <point x="817" y="400" type="curve" smooth="yes"/>
      <point x="817" y="295"/>
      <point x="737" y="201"/>
      <point x="595" y="201" type="curve" smooth="yes"/>
    </contour>
  </outline>
</glyph>
<glyph name="seven" format="1">
  <advance width="1228"/>
  <unicode hex="0037"/>
  <outline>
    <contour>
      <point x="370" y="1187" type="line" smooth="yes"/>
      <point x="325" y="1187"/>
      <point x="303" y="1164"/>
      <point x="286" y="1069" type="curve" smooth="yes"/>
      <point x="269" y="974"/>
      <point x="283" y="952"/>
      <point x="328" y="952" type="curve" smooth="yes"/>
      <point x="838" y="952" type="line"/>
      <point x="334" y="97" type="line" smooth="yes"/>
      <point x="293" y="27"/>
      <point x="388" y="-22"/>
      <point x="473" y="-22" type="curve" smooth="yes"/>
      <point x="524" y="-22"/>
      <point x="564" y="-8"/>
      <point x="583" y="24" type="curve" smooth="yes"/>
      <point x="1159" y="1012" type="line" smooth="yes"/>
      <point x="1168" y="1027"/>
      <point x="1175" y="1050"/>
      <point x="1181" y="1084" type="curve" smooth="yes"/>
      <point x="1196" y="1169"/>
      <point x="1181" y="1187"/>
      <point x="1136" y="1187" type="curve" smooth="yes"/>
    </contour>
  </outline>
</glyph>
<glyph name="eight" format="1">
  <advance width="1228"/>
  <unicode hex="0038"/>
  <outline>
    <contour>
      <point x="449" y="1209"/>
      <point x="295" y="1017"/>
      <point x="295" y="832" type="curve" smooth="yes"/>
      <point x="295" y="735.636"/>
      <point x="341.007" y="667.49"/>
      <point x="416.034" y="625.862" type="curve"/>
      <point x="248.632" y="577.077"/>
      <point x="162" y="454.673"/>
      <point x="162" y="286" type="curve" smooth="yes"/>
      <point x="162" y="100"/>
      <point x="304" y="-22"/>
      <point x="540" y="-22" type="curve" smooth="yes"/>
      <point x="912" y="-22"/>
      <point x="1044" y="190"/>
      <point x="1044" y="379" type="curve" smooth="yes"/>
      <point x="1044" y="492.026"/>
      <point x="985.61" y="568.957"/>
      <point x="891.987" y="612.74" type="curve"/>
      <point x="1014.63" y="656.33"/>
      <point x="1098" y="757.292"/>
      <point x="1098" y="910" type="curve" smooth="yes"/>
      <point x="1098" y="1071"/>
      <point x="982" y="1209"/>
      <point x="757" y="1209" type="curve" smooth="yes"/>
    </contour>
    <contour>
      <point x="737" y="518"/>
      <point x="787" y="468"/>
      <point x="787" y="391" type="curve" smooth="yes"/>
      <point x="787" y="297"/>
      <point x="725" y="196"/>
      <point x="578" y="196" type="curve" smooth="yes"/>
      <point x="476" y="196"/>
      <point x="425" y="245"/>
      <point x="425" y="321" type="curve" smooth="yes"/>
      <point x="425" y="416"/>
      <point x="489" y="518"/>
      <point x="635" y="518" type="curve" smooth="yes"/>
    </contour>
    <contour>
      <point x="802" y="991"/>
      <point x="851" y="947"/>
      <point x="851" y="878" type="curve" smooth="yes"/>
      <point x="851" y="800"/>
      <point x="794" y="712"/>
      <point x="669" y="712" type="curve" smooth="yes"/>
      <point x="583" y="712"/>
      <point x="536" y="755"/>
      <point x="536" y="822" type="curve" smooth="yes"/>
      <point x="536" y="910"/>
      <point x="602" y="991"/>
      <point x="718" y="991" type="curve" smooth="yes"/>
    </contour>
  </outline>
</glyph>
<glyph name="question" format="1">
  <advance width="1228"/>
  <unicode hex="003F"/>
  <outline>
    <contour>
      <point x="793" y="982"/>
      <point x="832" y="948"/>
      <point x="832" y="886" type="curve" smooth="yes"/>
      <point x="832" y="809"/>
      <point x="781" y="762"/>
      <point x="666" y="744" type="curve" smooth="yes"/>
      <point x="553" y="726" type="line" smooth="yes"/>
      <point x="527" y="722"/>
      <point x="516" y="701"/>
      <point x="514" y="675" type="curve" smooth="yes"/>
      <point x="495" y="467" type="line" smooth="yes"/>
      <point x="492" y="436"/>
      <point x="510" y="419"/>
      <point x="587" y="419" type="curve" smooth="yes"/>
      <point x="664" y="419"/>
      <point x="688" y="436"/>
      <point x="697" y="467" type="curve" smooth="yes"/>
      <point x="720" y="548" type="line"/>
      <point x="994" y="609"/>
      <point x="1088" y="741"/>
      <point x="1088" y="917" type="curve" smooth="yes"/>
      <point x="1088" y="1094"/>
      <point x="957" y="1209"/>
      <point x="718" y="1209" type="curve" smooth="yes"/>
      <point x="618" y="1209"/>
      <point x="512" y="1183"/>
      <point x="426" y="1144" type="curve" smooth="yes"/>
      <point x="384" y="1125"/>
      <point x="370" y="1090"/>
      <point x="394" y="1013" type="curve" smooth="yes"/>
      <point x="418" y="936"/>
      <point x="446" y="923"/>
      <point x="480" y="936" type="curve" smooth="yes"/>
      <point x="547" y="964"/>
      <point x="623" y="982"/>
      <point x="696" y="982" type="curve" smooth="yes"/>
    </contour>
    <contour>
      <point x="634" y="-22"/>
      <point x="726" y="61"/>
      <point x="726" y="171" type="curve" smooth="yes"/>
      <point x="726" y="253"/>
      <point x="663" y="321"/>
      <point x="576" y="321" type="curve" smooth="yes"/>
      <point x="474" y="321"/>
      <point x="381" y="238"/>
      <point x="381" y="129" type="curve" smooth="yes"/>
      <point x="381" y="46"/>
      <point x="444" y="-22"/>
      <point x="532" y="-22" type="curve" smooth="yes"/>
    </contour>
  </outline>
</glyph>
<glyph name="A" format="1">
  <advance width="1228"/>
  <unicode hex="0041"/>
  <outline>
    <contour>
      <point x="674" y="1209"/>
      <point x="633" y="1191"/>
      <point x="607" y="1144" type="curve" smooth="yes"/>
      <point x="27" y="102" type="line" smooth="yes"/>
      <point x="1" y="56"/>
      <point x="11" y="24"/>
      <point x="106" y="-2" type="curve" smooth="yes"/>
      <point x="193" y="-26"/>
      <point x="243" y="-17"/>
      <point x="268" y="27" type="curve" smooth="yes"/>
      <point x="381" y="234" type="line"/>
      <point x="485" y="441" type="line"/>
      <point x="706" y="865" type="line"/>
      <point x="710" y="865" type="line"/>
      <point x="778" y="439" type="line"/>
      <point x="808" y="236" type="line"/>
      <point x="846" y="27" type="line" smooth="yes"/>
      <point x="854" y="-17"/>
      <point x="893" y="-20"/>
      <point x="987" y="-2" type="curve" smooth="yes"/>
      <point x="1082" y="16"/>
      <point x="1103" y="45"/>
      <point x="1094" y="90" type="curve" smooth="yes"/>
      <point x="891" y="1144" type="line" smooth="yes"/>
      <point x="882" y="1190"/>
      <point x="850" y="1209"/>
      <point x="762" y="1209" type="curve" smooth="yes"/>
    </contour>
    <contour>
      <point x="476" y="455" type="line"/>
      <point x="357" y="220" type="line"/>
      <point x="827" y="220" type="line"/>
      <point x="791" y="455" type="line"/>
    </contour>
  </outline>
</glyph>
<glyph name="B" format="1">
  <advance width="1228"/>
  <unicode hex="0042"/>
  <outline>
    <contour>
      <point x="382" y="1187" type="line" smooth="yes"/>
      <point x="337" y="1187"/>
      <point x="316" y="1169"/>
      <point x="308" y="1124" type="curve" smooth="yes"/>
      <point x="121" y="63" type="line" smooth="yes"/>
      <point x="113" y="18"/>
      <point x="128" y="0"/>
      <point x="173" y="0" type="curve" smooth="yes"/>
      <point x="607" y="0" type="line" smooth="yes"/>
      <point x="774" y="0"/>
      <point x="904" y="38"/>
      <point x="988" y="119" type="curve" smooth="yes"/>
      <point x="1063" y="191"/>
      <point x="1099" y="299"/>
      <point x="1099" y="394" type="curve" smooth="yes"/>
      <point x="1099" y="515"/>
      <point x="1041" y="588"/>
      <point x="941" y="621" type="curve"/>
      <point x="1078" y="678"/>
      <point x="1146" y="777"/>
      <point x="1146" y="913" type="curve" smooth="yes"/>
      <point x="1146" y="1074"/>
      <point x="1025" y="1187"/>
      <point x="770" y="1187" type="curve" smooth="yes"/>
    </contour>
    <contour>
      <point x="784" y="499"/>
      <point x="840" y="463"/>
      <point x="840" y="386" type="curve" smooth="yes"/>
      <point x="840" y="340"/>
      <point x="823" y="296"/>
      <point x="793" y="267" type="curve" smooth="yes"/>
      <point x="757" y="232"/>
      <point x="700" y="215"/>
      <point x="619" y="215" type="curve" smooth="yes"/>
      <point x="398" y="215" type="line"/>
      <point x="447" y="499" type="line"/>
      <point x="668" y="499" type="line" smooth="yes"/>
    </contour>
    <contour>
      <point x="840" y="972"/>
      <point x="890" y="943"/>
      <point x="890" y="875" type="curve" smooth="yes"/>
      <point x="890" y="835"/>
      <point x="876" y="794"/>
      <point x="852" y="767" type="curve" smooth="yes"/>
      <point x="819" y="731"/>
      <point x="765" y="714"/>
      <point x="687" y="714" type="curve" smooth="yes"/>
      <point x="486" y="714" type="line"/>
      <point x="531" y="972" type="line"/>
      <point x="732" y="972" type="line" smooth="yes"/>
    </contour>
  </outline>
</glyph>
<glyph name="C" format="1">
  <advance width="1228"/>
  <unicode hex="0043"/>
  <outline>
    <contour>
      <point x="369" y="1209"/>
      <point x="150" y="836"/>
      <point x="150" y="470" type="curve" smooth="yes"/>
      <point x="150" y="162"/>
      <point x="337" y="-22"/>
      <point x="630" y="-22" type="curve" smooth="yes"/>
      <point x="771" y="-22"/>
      <point x="906" y="9"/>
      <point x="1032" y="65" type="curve" smooth="yes"/>
      <point x="1079" y="86"/>
      <point x="1092" y="128"/>
      <point x="1065" y="209" type="curve" smooth="yes"/>
      <point x="1039" y="287"/>
      <point x="1008" y="304"/>
      <point x="965" y="285" type="curve" smooth="yes"/>
      <point x="856" y="238"/>
      <point x="760" y="215"/>
      <point x="651" y="215" type="curve" smooth="yes"/>
      <point x="494" y="215"/>
      <point x="412" y="307"/>
      <point x="412" y="483" type="curve" smooth="yes"/>
      <point x="412" y="718"/>
      <point x="528" y="972"/>
      <point x="785" y="972" type="curve" smooth="yes"/>
      <point x="894" y="972"/>
      <point x="982" y="949"/>
      <point x="1074" y="902" type="curve" smooth="yes"/>
      <point x="1110" y="883"/>
      <point x="1151" y="896"/>
      <point x="1184" y="980" type="curve" smooth="yes"/>
      <point x="1216" y="1061"/>
      <point x="1198" y="1101"/>
      <point x="1158" y="1122" type="curve" smooth="yes"/>
      <point x="1052" y="1178"/>
      <point x="928" y="1209"/>
      <point x="787" y="1209" type="curve" smooth="yes"/>
    </contour>
  </outline>
</glyph>
<glyph name="D" format="1">
  <advance width="1228"/>
  <unicode hex="0044"/>
  <outline>
    <contour>
      <point x="362" y="1187" type="line" smooth="yes"/>
      <point x="317" y="1187"/>
      <point x="296" y="1169"/>
      <point x="288" y="1124" type="curve" smooth="yes"/>
      <point x="101" y="63" type="line" smooth="yes"/>
      <point x="93" y="18"/>
      <point x="108" y="0"/>
      <point x="153" y="0" type="curve" smooth="yes"/>
      <point x="535" y="0" type="line" smooth="yes"/>
      <point x="747" y="0"/>
      <point x="919" y="84"/>
      <point x="1034" y="241" type="curve" smooth="yes"/>
      <point x="1129" y="371"/>
      <point x="1176" y="554"/>
      <point x="1176" y="706" type="curve" smooth="yes"/>
      <point x="1176" y="1000"/>
      <point x="1007" y="1187"/>
      <point x="707" y="1187" type="curve" smooth="yes"/>
    </contour>
    <contour>
      <point x="839" y="952"/>
      <point x="914" y="864"/>
      <point x="914" y="705" type="curve" smooth="yes"/>
      <point x="914" y="591"/>
      <point x="877" y="447"/>
      <point x="803" y="354" type="curve" smooth="yes"/>
      <point x="741" y="277"/>
      <point x="649" y="235"/>
      <point x="541" y="235" type="curve" smooth="yes"/>
      <point x="381" y="235" type="line"/>
      <point x="507" y="952" type="line"/>
      <point x="687" y="952" type="line" smooth="yes"/>
    </contour>
  </outline>
</glyph>
<glyph name="E" format="1">
  <advance width="1228"/>
  <unicode hex="0045"/>
  <outline>
    <contour>
      <point x="402" y="1187" type="line" smooth="yes"/>
      <point x="357" y="1187"/>
      <point x="336" y="1169"/>
      <point x="328" y="1124" type="curve" smooth="yes"/>
      <point x="141" y="63" type="line" smooth="yes"/>
      <point x="133" y="18"/>
      <point x="148" y="0"/>
      <point x="193" y="0" type="curve" smooth="yes"/>
      <point x="927" y="0" type="line" smooth="yes"/>
      <point x="972" y="0"/>
      <point x="993" y="22"/>
      <point x="1010" y="117" type="curve" smooth="yes"/>
      <point x="1027" y="212"/>
      <point x="1013" y="235"/>
      <point x="968" y="235" type="curve" smooth="yes"/>
      <point x="421" y="235" type="line"/>
      <point x="547" y="952" type="line"/>
      <point x="1074" y="952" type="line" smooth="yes"/>
      <point x="1119" y="952"/>
      <point x="1141" y="974"/>
      <point x="1158" y="1069" type="curve" smooth="yes"/>
      <point x="1175" y="1164"/>
      <point x="1161" y="1187"/>
      <point x="1116" y="1187" type="curve" smooth="yes"/>
    </contour>
    <contour>
      <point x="442" y="729" type="line"/>
      <point x="401" y="494" type="line"/>
      <point x="831" y="494" type="line" smooth="yes"/>
      <point x="876" y="494"/>
      <point x="897" y="516"/>
      <point x="914" y="611" type="curve" smooth="yes"/>
      <point x="931" y="706"/>
      <point x="917" y="729"/>
      <point x="872" y="729" type="curve" smooth="yes"/>
    </contour>
  </outline>
</glyph>
<glyph name="G" format="1">
  <advance width="1228"/>
  <unicode hex="0047"/>
  <outline>
    <contour>
      <point x="329" y="1209"/>
      <point x="110" y="836"/>
      <point x="110" y="470" type="curve" smooth="yes"/>
      <point x="110" y="162"/>
      <point x="297" y="-22"/>
      <point x="590" y="-22" type="curve" smooth="yes"/>
      <point x="741" y="-22"/>
      <point x="879" y="11"/>
      <point x="1007" y="74" type="curve" smooth="yes"/>
      <point x="1032" y="86"/>
      <point x="1047" y="111"/>
      <point x="1053" y="143" type="curve" smooth="yes"/>
      <point x="1134" y="604" type="line" smooth="yes"/>
      <point x="1142" y="649"/>
      <point x="1127" y="667"/>
      <point x="1082" y="667" type="curve" smooth="yes"/>
      <point x="679" y="667" type="line" smooth="yes"/>
      <point x="634" y="667"/>
      <point x="612" y="644"/>
      <point x="595" y="549" type="curve" smooth="yes"/>
      <point x="579" y="454"/>
      <point x="593" y="432"/>
      <point x="638" y="432" type="curve" smooth="yes"/>
      <point x="854" y="432" type="line"/>
      <point x="821" y="246" type="line"/>
      <point x="751" y="225"/>
      <point x="684" y="215"/>
      <point x="611" y="215" type="curve" smooth="yes"/>
      <point x="454" y="215"/>
      <point x="372" y="307"/>
      <point x="372" y="483" type="curve" smooth="yes"/>
      <point x="372" y="718"/>
      <point x="488" y="972"/>
      <point x="745" y="972" type="curve" smooth="yes"/>
      <point x="863" y="972"/>
      <point x="959" y="949"/>
      <point x="1054" y="902" type="curve" smooth="yes"/>
      <point x="1090" y="884"/>
      <point x="1131" y="896"/>
      <point x="1164" y="980" type="curve" smooth="yes"/>
      <point x="1196" y="1061"/>
      <point x="1178" y="1101"/>
      <point x="1138" y="1122" type="curve" smooth="yes"/>
      <point x="1027" y="1178"/>
      <point x="901" y="1209"/>
      <point x="747" y="1209" type="curve" smooth="yes"/>
    </contour>
  </outline>
</glyph>
<glyph name="I" format="1">
  <advance width="1228"/>
  <unicode hex="0049"/>
  <outline>
    <contour>
      <point x="372" y="1187" type="line" smooth="yes"/>
      <point x="327" y="1187"/>
      <point x="304" y="1167"/>
      <point x="289" y="1074" type="curve" smooth="yes"/>
      <point x="274" y="981"/>
      <point x="287" y="962"/>
      <point x="332" y="962" type="curve" smooth="yes"/>
      <point x="588" y="962" type="line"/>
      <point x="459" y="225" type="line"/>
      <point x="223" y="225" type="line" smooth="yes"/>
      <point x="178" y="225"/>
      <point x="154" y="205"/>
      <point x="139" y="112" type="curve" smooth="yes"/>
      <point x="124" y="19"/>
      <point x="138" y="0"/>
      <point x="183" y="0" type="curve" smooth="yes"/>
      <point x="925" y="0" type="line" smooth="yes"/>
      <point x="970" y="0"/>
      <point x="992" y="19"/>
      <point x="1007" y="112" type="curve" smooth="yes"/>
      <point x="1022" y="205"/>
      <point x="1010" y="225"/>
      <point x="965" y="225" type="curve" smooth="yes"/>
      <point x="709" y="225" type="line"/>
      <point x="838" y="962" type="line"/>
      <point x="1074" y="962" type="line" smooth="yes"/>
      <point x="1119" y="962"/>
      <point x="1142" y="981"/>
      <point x="1157" y="1074" type="curve" smooth="yes"/>
      <point x="1172" y="1167"/>
      <point x="1159" y="1187"/>
      <point x="1114" y="1187" type="curve" smooth="yes"/>
    </contour>
  </outline>
</glyph>
<glyph name="J" format="1">
  <advance width="1228"/>
  <unicode hex="004A"/>
  <outline>
    <contour>
      <point x="552" y="1187" type="line" smooth="yes"/>
      <point x="507" y="1187"/>
      <point x="485" y="1164"/>
      <point x="468" y="1069" type="curve" smooth="yes"/>
      <point x="451" y="974"/>
      <point x="465" y="952"/>
      <point x="510" y="952" type="curve" smooth="yes"/>
      <point x="826" y="952" type="line"/>
      <point x="726" y="383" type="line" smooth="yes"/>
      <point x="705" y="266"/>
      <point x="641" y="215"/>
      <point x="540" y="215" type="curve" smooth="yes"/>
      <point x="452" y="215"/>
      <point x="356" y="245"/>
      <point x="270" y="295" type="curve" smooth="yes"/>
      <point x="235" y="315"/>
      <point x="198" y="309"/>
      <point x="156" y="227" type="curve" smooth="yes"/>
      <point x="116" y="149"/>
      <point x="128" y="108"/>
      <point x="164" y="83" type="curve" smooth="yes"/>
      <point x="262" y="17"/>
      <point x="397" y="-22"/>
      <point x="528" y="-22" type="curve" smooth="yes"/>
      <point x="795" y="-22"/>
      <point x="927" y="105"/>
      <point x="973" y="363" type="curve" smooth="yes"/>
      <point x="1107" y="1124" type="line" smooth="yes"/>
      <point x="1115" y="1169"/>
      <point x="1100" y="1187"/>
      <point x="1055" y="1187" type="curve" smooth="yes"/>
    </contour>
  </outline>
</glyph>
<glyph name="L" format="1">
  <advance width="1228"/>
  <unicode hex="004C"/>
  <outline>
    <contour>
      <point x="411" y="1187" type="line" smooth="yes"/>
      <point x="366" y="1187"/>
      <point x="345" y="1169"/>
      <point x="337" y="1124" type="curve" smooth="yes"/>
      <point x="150" y="63" type="line" smooth="yes"/>
      <point x="142" y="18"/>
      <point x="157" y="0"/>
      <point x="202" y="0" type="curve" smooth="yes"/>
      <point x="935" y="0" type="line" smooth="yes"/>
      <point x="980" y="0"/>
      <point x="1002" y="23"/>
      <point x="1018" y="118" type="curve" smooth="yes"/>
      <point x="1035" y="213"/>
      <point x="1021" y="235"/>
      <point x="976" y="235" type="curve" smooth="yes"/>
      <point x="430" y="235" type="line"/>
      <point x="587" y="1124" type="line" smooth="yes"/>
      <point x="595" y="1169"/>
      <point x="580" y="1187"/>
      <point x="535" y="1187" type="curve" smooth="yes"/>
    </contour>
  </outline>
</glyph>
<glyph name="N" format="1">
  <advance width="1228"/>
  <unicode hex="004E"/>
  <outline>
    <contour>
      <point x="445" y="767" type="line"/>
      <point x="804" y="33" type="line" smooth="yes"/>
      <point x="821" y="-2"/>
      <point x="841" y="-22"/>
      <point x="904" y="-22" type="curve" smooth="yes"/>
      <point x="988" y="-22"/>
      <point x="1018" y="2"/>
      <point x="1025" y="44" type="curve" smooth="yes"/>
      <point x="1216" y="1124" type="line" smooth="yes"/>
      <point x="1224" y="1169"/>
      <point x="1209" y="1187"/>
      <point x="1164" y="1187" type="curve" smooth="yes"/>
      <point x="1050" y="1187" type="line" smooth="yes"/>
      <point x="1005" y="1187"/>
      <point x="984" y="1169"/>
      <point x="976" y="1124" type="curve" smooth="yes"/>
      <point x="861" y="476" type="line"/>
      <point x="526" y="1163" type="line" smooth="yes"/>
      <point x="517" y="1181"/>
      <point x="500" y="1187"/>
      <point x="476" y="1187" type="curve" smooth="yes"/>
      <point x="342" y="1187" type="line" smooth="yes"/>
      <point x="297" y="1187"/>
      <point x="276" y="1169"/>
      <point x="268" y="1124" type="curve" smooth="yes"/>
      <point x="81" y="63" type="line" smooth="yes"/>
      <point x="73" y="18"/>
      <point x="88" y="0"/>
      <point x="133" y="0" type="curve"/>
      <point x="247" y="0" type="line" smooth="yes"/>
      <point x="292" y="0"/>
      <point x="313" y="18"/>
      <point x="321" y="63" type="curve" smooth="yes"/>
    </contour>
  </outline>
</glyph>
<glyph name="R" format="1">
  <advance width="1228"/>
  <unicode hex="0052"/>
  <outline>
    <contour>
      <point x="382" y="1187" type="line" smooth="yes"/>
      <point x="337" y="1187"/>
      <point x="316" y="1169"/>
      <point x="308" y="1124" type="curve" smooth="yes"/>
      <point x="121" y="63" type="line" smooth="yes"/>
      <point x="113" y="18"/>
      <point x="128" y="0"/>
      <point x="173" y="0" type="curve" smooth="yes"/>
      <point x="297" y="0" type="line" smooth="yes"/>
      <point x="342" y="0"/>
      <point x="363" y="18"/>
      <point x="371" y="63" type="curve" smooth="yes"/>
      <point x="430" y="401" type="line"/>
      <point x="720" y="401" type="line"/>
      <point x="1009" y="434"/>
      <point x="1142" y="611"/>
      <point x="1142" y="839" type="curve" smooth="yes"/>
      <point x="1142" y="1052"/>
      <point x="1013" y="1187"/>
      <point x="745" y="1187" type="curve" smooth="yes"/>
    </contour>
    <contour>
      <point x="596" y="417" type="line"/>
      <point x="769" y="18" type="line" smooth="yes"/>
      <point x="787" y="-23"/>
      <point x="830" y="-21"/>
      <point x="913" y="14" type="curve" smooth="yes"/>
      <point x="1002" y="52"/>
      <point x="1017" y="88"/>
      <point x="999" y="128" type="curve" smooth="yes"/>
      <point x="846" y="469" type="line"/>
    </contour>
    <contour>
      <point x="828" y="952"/>
      <point x="884" y="908"/>
      <point x="884" y="818" type="curve" smooth="yes"/>
      <point x="884" y="694"/>
      <point x="803" y="636"/>
      <point x="655" y="636" type="curve" smooth="yes"/>
      <point x="471" y="636" type="line"/>
      <point x="527" y="952" type="line"/>
      <point x="702" y="952" type="line" smooth="yes"/>
    </contour>
  </outline>
</glyph>
<glyph name="U" format="1">
  <advance width="1228"/>
  <unicode hex="0055"/>
  <outline>
    <contour>
      <point x="1040" y="1187" type="line" smooth="yes"/>
      <point x="995" y="1187"/>
      <point x="974" y="1169"/>
      <point x="966" y="1124" type="curve" smooth="yes"/>
      <point x="847" y="453" type="line" smooth="yes"/>
      <point x="818" y="288"/>
      <point x="719" y="215"/>
      <point x="585" y="215" type="curve" smooth="yes"/>
      <point x="469" y="215"/>
      <point x="393" y="269"/>
      <point x="393" y="390" type="curve" smooth="yes"/>
      <point x="393" y="410"/>
      <point x="395" y="430"/>
      <point x="399" y="453" type="curve" smooth="yes"/>
      <point x="518" y="1124" type="line" smooth="yes"/>
      <point x="526" y="1169"/>
      <point x="511" y="1187"/>
      <point x="466" y="1187" type="curve" smooth="yes"/>
      <point x="342" y="1187" type="line" smooth="yes"/>
      <point x="297" y="1187"/>
      <point x="276" y="1169"/>
      <point x="268" y="1124" type="curve" smooth="yes"/>
      <point x="150" y="453" type="line" smooth="yes"/>
      <point x="144" y="419"/>
      <point x="141" y="387"/>
      <point x="141" y="357" type="curve" smooth="yes"/>
      <point x="141" y="123"/>
      <point x="308" y="-22"/>
      <point x="565" y="-22" type="curve" smooth="yes"/>
      <point x="855" y="-22"/>
      <point x="1038" y="123"/>
      <point x="1090" y="413" type="curve" smooth="yes"/>
      <point x="1216" y="1124" type="line" smooth="yes"/>
      <point x="1224" y="1169"/>
      <point x="1209" y="1187"/>
      <point x="1164" y="1187" type="curve" smooth="yes"/>
    </contour>
  </outline>
</glyph>
<glyph name="V" format="1">
  <advance width="1228"/>
  <unicode hex="0056"/>
  <outline>
    <contour>
      <point x="223" y="1168"/>
      <point x="196" y="1135"/>
      <point x="205" y="1090" type="curve" smooth="yes"/>
      <point x="414" y="43" type="line" smooth="yes"/>
      <point x="423" y="-3"/>
      <point x="451" y="-22"/>
      <point x="534" y="-22" type="curve" smooth="yes"/>
      <point x="617" y="-22"/>
      <point x="652" y="-4"/>
      <point x="678" y="43" type="curve" smooth="yes"/>
      <point x="1270" y="1090" type="line" smooth="yes"/>
      <point x="1296" y="1136"/>
      <point x="1273" y="1168"/>
      <point x="1180" y="1189" type="curve" smooth="yes"/>
      <point x="1088" y="1210"/>
      <point x="1044" y="1205"/>
      <point x="1019" y="1160" type="curve" smooth="yes"/>
      <point x="596" y="394" type="line"/>
      <point x="453" y="1160" type="line" smooth="yes"/>
      <point x="445" y="1204"/>
      <point x="404" y="1210"/>
      <point x="313" y="1189" type="curve" smooth="yes"/>
    </contour>
  </outline>
</glyph>
<glyph name="W" format="1">
  <advance width="1228"/>
  <unicode hex="0057"/>
  <outline>
    <contour>
      <point x="216" y="1197"/>
      <point x="187" y="1176"/>
      <point x="184" y="1132" type="curve" smooth="yes"/>
      <point x="111" y="55" type="line" smooth="yes"/>
      <point x="108" y="6"/>
      <point x="130" y="-10"/>
      <point x="225" y="-10" type="curve" smooth="yes"/>
      <point x="320" y="-10"/>
      <point x="354" y="11"/>
      <point x="380" y="55" type="curve" smooth="yes"/>
      <point x="631" y="477" type="line"/>
      <point x="732" y="55" type="line" smooth="yes"/>
      <point x="742" y="11"/>
      <point x="762" y="-10"/>
      <point x="857" y="-10" type="curve" smooth="yes"/>
      <point x="952" y="-10"/>
      <point x="977" y="6"/>
      <point x="991" y="55" type="curve" smooth="yes"/>
      <point x="1295" y="1118" type="line" smooth="yes"/>
      <point x="1308" y="1162"/>
      <point x="1283" y="1188"/>
      <point x="1191" y="1195" type="curve" smooth="yes"/>
      <point x="1100" y="1202"/>
      <point x="1066" y="1185"/>
      <point x="1054" y="1142" type="curve" smooth="yes"/>
      <point x="867" y="466" type="line"/>
      <point x="780" y="831" type="line" smooth="yes"/>
      <point x="774" y="856"/>
      <point x="759" y="875"/>
      <point x="690" y="875" type="curve" smooth="yes"/>
      <point x="621" y="875"/>
      <point x="603" y="860"/>
      <point x="586" y="831" type="curve" smooth="yes"/>
      <point x="371" y="466" type="line"/>
      <point x="422" y="1135" type="line" smooth="yes"/>
      <point x="425" y="1178"/>
      <point x="399" y="1197"/>
      <point x="305" y="1197" type="curve" smooth="yes"/>
    </contour>
  </outline>
</glyph>
<glyph name="X" format="1">
  <advance width="1228"/>
  <unicode hex="0058"/>
  <outline>
    <contour>
      <point x="1057" y="1217"/>
      <point x="1012" y="1211"/>
      <point x="979" y="1171" type="curve" smooth="yes"/>
      <point x="612" y="721" type="line"/>
      <point x="598" y="751" type="line"/>
      <point x="83" y="136" type="line" smooth="yes"/>
      <point x="49" y="96"/>
      <point x="55" y="58"/>
      <point x="139" y="14" type="curve" smooth="yes"/>
      <point x="227" y="-32"/>
      <point x="274" y="-27"/>
      <point x="307" y="13" type="curve" smooth="yes"/>
      <point x="670" y="461" type="line"/>
      <point x="686" y="441" type="line"/>
      <point x="1199" y="1050" type="line" smooth="yes"/>
      <point x="1233" y="1090"/>
      <point x="1229" y="1127"/>
      <point x="1145" y="1171" type="curve" smooth="yes"/>
    </contour>
    <contour>
      <point x="245" y="1134"/>
      <point x="231" y="1100"/>
      <point x="252" y="1060" type="curve" smooth="yes"/>
      <point x="568" y="460" type="line"/>
      <point x="608" y="430" type="line"/>
      <point x="825" y="18" type="line" smooth="yes"/>
      <point x="846" y="-21"/>
      <point x="881" y="-23"/>
      <point x="968" y="14" type="curve" smooth="yes"/>
      <point x="1062" y="54"/>
      <point x="1077" y="88"/>
      <point x="1056" y="128" type="curve" smooth="yes"/>
      <point x="744" y="721" type="line"/>
      <point x="700" y="744" type="line"/>
      <point x="480" y="1170" type="line" smooth="yes"/>
      <point x="460" y="1209"/>
      <point x="426" y="1211"/>
      <point x="339" y="1174" type="curve" smooth="yes"/>
    </contour>
  </outline>
</glyph>
<glyph name="Y" format="1">
  <advance width="1228"/>
  <unicode hex="0059"/>
  <outline>
    <contour>
      <point x="1091" y="1210"/>
      <point x="1050" y="1210"/>
      <point x="1017" y="1169" type="curve" smooth="yes"/>
      <point x="655" y="708" type="line"/>
      <point x="457" y="1169" type="line" smooth="yes"/>
      <point x="439" y="1210"/>
      <point x="405" y="1209"/>
      <point x="318" y="1174" type="curve" smooth="yes"/>
      <point x="227" y="1137"/>
      <point x="211" y="1110"/>
      <point x="228" y="1069" type="curve" smooth="yes"/>
      <point x="500" y="462" type="line"/>
      <point x="430" y="63" type="line" smooth="yes"/>
      <point x="422" y="18"/>
      <point x="437" y="0"/>
      <point x="482" y="0" type="curve"/>
      <point x="606" y="0" type="line" smooth="yes"/>
      <point x="651" y="0"/>
      <point x="672" y="18"/>
      <point x="680" y="63" type="curve" smooth="yes"/>
      <point x="746" y="442" type="line"/>
      <point x="1232" y="1049" type="line" smooth="yes"/>
      <point x="1270" y="1090"/>
      <point x="1262" y="1132"/>
      <point x="1172" y="1173" type="curve" smooth="yes"/>
    </contour>
  </outline>
</glyph>
<glyph name="Z" format="1">
  <advance width="1228"/>
  <unicode hex="005A"/>
  <outline>
    <contour>
      <point x="967" y="0" type="line" smooth="yes"/>
      <point x="1012" y="0"/>
      <point x="1033" y="22"/>
      <point x="1050" y="117" type="curve" smooth="yes"/>
      <point x="1067" y="212"/>
      <point x="1053" y="235"/>
      <point x="1008" y="235" type="curve" smooth="yes"/>
      <point x="484" y="235" type="line"/>
      <point x="1141" y="992" type="line" smooth="yes"/>
      <point x="1159" y="1013"/>
      <point x="1173" y="1041"/>
      <point x="1181" y="1084" type="curve" smooth="yes"/>
      <point x="1196" y="1169"/>
      <point x="1181" y="1187"/>
      <point x="1136" y="1187" type="curve" smooth="yes"/>
      <point x="350" y="1187" type="line" smooth="yes"/>
      <point x="305" y="1187"/>
      <point x="283" y="1164"/>
      <point x="266" y="1069" type="curve" smooth="yes"/>
      <point x="249" y="974"/>
      <point x="263" y="952"/>
      <point x="308" y="952" type="curve" smooth="yes"/>
      <point x="788" y="952" type="line"/>
      <point x="132" y="195" type="line" smooth="yes"/>
      <point x="115" y="176"/>
      <point x="103" y="147"/>
      <point x="95" y="102" type="curve" smooth="yes"/>
      <point x="80" y="17"/>
      <point x="96" y="0"/>
      <point x="141" y="0" type="curve" smooth="yes"/>
    </contour>
  </outline>
</glyph>
<glyph name="bracketright" format="1">
  <advance width="1228"/>
  <unicode hex="005D"/>
  <outline>
    <contour>
      <point x="809" y="1087" type="line"/>
      <point x="588" y="-168" type="line"/>
      <point x="265" y="-168" type="line" smooth="yes"/>
      <point x="220" y="-168"/>
      <point x="196" y="-195"/>
      <point x="182" y="-280" type="curve" smooth="yes"/>
      <point x="166" y="-373"/>
      <point x="180" y="-393"/>
      <point x="225" y="-393" type="curve" smooth="yes"/>
      <point x="735" y="-393" type="line" smooth="yes"/>
      <point x="780" y="-393"/>
      <point x="801" y="-375"/>
      <point x="809" y="-330" type="curve" smooth="yes"/>
      <point x="1088" y="1249" type="line" smooth="yes"/>
      <point x="1096" y="1294"/>
      <point x="1081" y="1312"/>
      <point x="1036" y="1312" type="curve" smooth="yes"/>
      <point x="526" y="1312" type="line" smooth="yes"/>
      <point x="481" y="1312"/>
      <point x="458" y="1292"/>
      <point x="443" y="1199" type="curve" smooth="yes"/>
      <point x="428" y="1106"/>
      <point x="441" y="1087"/>
      <point x="486" y="1087" type="curve" smooth="yes"/>
    </contour>
  </outline>
</glyph>
<glyph name="grave" format="1">
  <advance width="1228"/>
  <unicode hex="0060"/>
  <outline>
    <contour>
      <point x="533" y="1392" type="line" smooth="yes"/>
      <point x="495" y="1413"/>
      <point x="453" y="1392"/>
      <point x="413" y="1301" type="curve" smooth="yes"/>
      <point x="373" y="1209"/>
      <point x="388" y="1171"/>
      <point x="422" y="1162" type="curve" smooth="yes"/>
      <point x="896" y="1030" type="line" smooth="yes"/>
      <point x="926" y="1022"/>
      <point x="949" y="1034"/>
      <point x="963" y="1078" type="curve" smooth="yes"/>
      <point x="977" y="1122"/>
      <point x="970" y="1149"/>
      <point x="941" y="1165" type="curve" smooth="yes"/>
    </contour>
  </outline>
</glyph>
<glyph name="a" format="1">
  <advance width="1228"/>
  <unicode hex="0061"/>
  <outline>
    <contour>
      <point x="291" y="946"/>
      <point x="129" y="632"/>
      <point x="129" y="380" type="curve" smooth="yes"/>
      <point x="129" y="144"/>
      <point x="265" y="-22"/>
      <point x="484" y="-22" type="curve" smooth="yes"/>
      <point x="615" y="-22"/>
      <point x="726" y="43"/>
      <point x="804" y="135" type="curve"/>
      <point x="792" y="63" type="line" smooth="yes"/>
      <point x="785" y="18"/>
      <point x="799" y="0"/>
      <point x="844" y="0" type="curve" smooth="yes"/>
      <point x="928" y="0" type="line" smooth="yes"/>
      <point x="973" y="0"/>
      <point x="994" y="18"/>
      <point x="1002" y="63" type="curve" smooth="yes"/>
      <point x="1142" y="861" type="line" smooth="yes"/>
      <point x="1150" y="906"/>
      <point x="1135" y="924"/>
      <point x="1090" y="924" type="curve" smooth="yes"/>
      <point x="1006" y="924" type="line" smooth="yes"/>
      <point x="961" y="924"/>
      <point x="940" y="906"/>
      <point x="932" y="861" type="curve" smooth="yes"/>
      <point x="917" y="772" type="line"/>
      <point x="867" y="877"/>
      <point x="762" y="946"/>
      <point x="634" y="946" type="curve" smooth="yes"/>
    </contour>
    <contour>
      <point x="753" y="714"/>
      <point x="835" y="647"/>
      <point x="835" y="522" type="curve" smooth="yes"/>
      <point x="835" y="377"/>
      <point x="736" y="210"/>
      <point x="556" y="210" type="curve" smooth="yes"/>
      <point x="451" y="210"/>
      <point x="389" y="279"/>
      <point x="389" y="391" type="curve" smooth="yes"/>
      <point x="389" y="525"/>
      <point x="462" y="714"/>
      <point x="644" y="714" type="curve" smooth="yes"/>
    </contour>
  </outline>
</glyph>
<glyph name="b" format="1">
  <advance width="1228"/>
  <unicode hex="0062"/>
  <outline>
    <contour>
      <point x="391" y="1312" type="line" smooth="yes"/>
      <point x="346" y="1312"/>
      <point x="325" y="1294"/>
      <point x="317" y="1249" type="curve" smooth="yes"/>
      <point x="108" y="63" type="line" smooth="yes"/>
      <point x="100" y="18"/>
      <point x="115" y="0"/>
      <point x="160" y="0" type="curve" smooth="yes"/>
      <point x="254" y="0" type="line" smooth="yes"/>
      <point x="299" y="0"/>
      <point x="321" y="18"/>
      <point x="328" y="63" type="curve" smooth="yes"/>
      <point x="341" y="142" type="line"/>
      <point x="390" y="43"/>
      <point x="493" y="-22"/>
      <point x="616" y="-22" type="curve" smooth="yes"/>
      <point x="959" y="-22"/>
      <point x="1121" y="292"/>
      <point x="1121" y="544" type="curve" smooth="yes"/>
      <point x="1121" y="780"/>
      <point x="985" y="946"/>
      <point x="766" y="946" type="curve" smooth="yes"/>
      <point x="663" y="946"/>
      <point x="573" y="903"/>
      <point x="493" y="833" type="curve"/>
      <point x="567" y="1249" type="line" smooth="yes"/>
      <point x="575" y="1294"/>
      <point x="560" y="1312"/>
      <point x="515" y="1312" type="curve" smooth="yes"/>
    </contour>
    <contour>
      <point x="799" y="714"/>
      <point x="861" y="645"/>
      <point x="861" y="533" type="curve" smooth="yes"/>
      <point x="861" y="399"/>
      <point x="788" y="210"/>
      <point x="606" y="210" type="curve" smooth="yes"/>
      <point x="497" y="210"/>
      <point x="415" y="277"/>
      <point x="415" y="402" type="curve" smooth="yes"/>
      <point x="415" y="547"/>
      <point x="514" y="714"/>
      <point x="694" y="714" type="curve" smooth="yes"/>
    </contour>
  </outline>
</glyph>
<glyph name="d" format="1">
  <advance width="1228"/>
  <unicode hex="0064"/>
  <outline>
    <contour>
      <point x="1015" y="1312" type="line" smooth="yes"/>
      <point x="970" y="1312"/>
      <point x="949" y="1294"/>
      <point x="941" y="1249" type="curve" smooth="yes"/>
      <point x="858" y="779" type="line"/>
      <point x="882" y="799" type="line"/>
      <point x="828" y="889"/>
      <point x="731" y="946"/>
      <point x="614" y="946" type="curve" smooth="yes"/>
      <point x="271" y="946"/>
      <point x="109" y="632"/>
      <point x="109" y="380" type="curve" smooth="yes"/>
      <point x="109" y="144"/>
      <point x="245" y="-22"/>
      <point x="464" y="-22" type="curve"/>
      <point x="602" y="-22"/>
      <point x="719" y="24"/>
      <point x="819" y="127" type="curve"/>
      <point x="839" y="33"/>
      <point x="907" y="0"/>
      <point x="981" y="0" type="curve" smooth="yes"/>
      <point x="1065" y="0" type="line" smooth="yes"/>
      <point x="1110" y="0"/>
      <point x="1133" y="20"/>
      <point x="1148" y="113" type="curve" smooth="yes"/>
      <point x="1163" y="206"/>
      <point x="1150" y="225"/>
      <point x="1105" y="225" type="curve" smooth="yes"/>
      <point x="1076" y="225" type="line" smooth="yes"/>
      <point x="1033" y="225"/>
      <point x="1016" y="257"/>
      <point x="1025" y="310" type="curve" smooth="yes"/>
      <point x="1191" y="1249" type="line" smooth="yes"/>
      <point x="1199" y="1294"/>
      <point x="1184" y="1312"/>
      <point x="1139" y="1312" type="curve" smooth="yes"/>
    </contour>
    <contour>
      <point x="733" y="714"/>
      <point x="815" y="647"/>
      <point x="815" y="522" type="curve" smooth="yes"/>
      <point x="815" y="377"/>
      <point x="716" y="210"/>
      <point x="536" y="210" type="curve" smooth="yes"/>
      <point x="431" y="210"/>
      <point x="369" y="279"/>
      <point x="369" y="391" type="curve" smooth="yes"/>
      <point x="369" y="525"/>
      <point x="442" y="714"/>
      <point x="624" y="714" type="curve" smooth="yes"/>
    </contour>
  </outline>
</glyph>
<glyph name="e" format="1">
  <advance width="1228"/>
  <unicode hex="0065"/>
  <outline>
    <contour>
      <point x="321" y="946"/>
      <point x="126" y="670"/>
      <point x="126" y="379" type="curve" smooth="yes"/>
      <point x="126" y="149"/>
      <point x="269" y="-22"/>
      <point x="530" y="-22" type="curve" smooth="yes"/>
      <point x="673" y="-22"/>
      <point x="829" y="5"/>
      <point x="970" y="49" type="curve" smooth="yes"/>
      <point x="1021" y="65"/>
      <point x="1035" y="94"/>
      <point x="1019" y="176" type="curve" smooth="yes"/>
      <point x="1003" y="257"/>
      <point x="981" y="273"/>
      <point x="935" y="260" type="curve" smooth="yes"/>
      <point x="796" y="220"/>
      <point x="678" y="205"/>
      <point x="570" y="205" type="curve" smooth="yes"/>
      <point x="425" y="205"/>
      <point x="353" y="293"/>
      <point x="382" y="459" type="curve" smooth="yes"/>
      <point x="413" y="635"/>
      <point x="525" y="719"/>
      <point x="674" y="719" type="curve" smooth="yes"/>
      <point x="782" y="719"/>
      <point x="828" y="674"/>
      <point x="828" y="624" type="curve" smooth="yes"/>
      <point x="828" y="590"/>
      <point x="810" y="557"/>
      <point x="750" y="551" type="curve" smooth="yes"/>
      <point x="308" y="507" type="line"/>
      <point x="275" y="318" type="line"/>
      <point x="838" y="374" type="line" smooth="yes"/>
      <point x="1017" y="392"/>
      <point x="1086" y="495"/>
      <point x="1086" y="634" type="curve" smooth="yes"/>
      <point x="1086" y="817"/>
      <point x="935" y="946"/>
      <point x="700" y="946" type="curve" smooth="yes"/>
    </contour>
  </outline>
</glyph>
<glyph name="f" format="1">
  <advance width="1228"/>
  <unicode hex="0066"/>
  <outline>
    <contour>
      <point x="1018" y="1080"/>
      <point x="1096" y="1066"/>
      <point x="1176" y="1043" type="curve" smooth="yes"/>
      <point x="1217" y="1031"/>
      <point x="1248" y="1043"/>
      <point x="1277" y="1124" type="curve" smooth="yes"/>
      <point x="1307" y="1207"/>
      <point x="1289" y="1243"/>
      <point x="1246" y="1260" type="curve" smooth="yes"/>
      <point x="1148" y="1298"/>
      <point x="1045" y="1317"/>
      <point x="952" y="1317" type="curve" smooth="yes"/>
      <point x="720" y="1317"/>
      <point x="592" y="1186"/>
      <point x="548" y="937" type="curve" smooth="yes"/>
      <point x="535" y="864" type="line"/>
      <point x="352" y="864" type="line" smooth="yes"/>
      <point x="307" y="864"/>
      <point x="284" y="840"/>
      <point x="269" y="751" type="curve" smooth="yes"/>
      <point x="254" y="662"/>
      <point x="267" y="639"/>
      <point x="312" y="639" type="curve" smooth="yes"/>
      <point x="495" y="639" type="line"/>
      <point x="377" y="-32" type="line" smooth="yes"/>
      <point x="358" y="-140"/>
      <point x="307" y="-178"/>
      <point x="230" y="-178" type="curve" smooth="yes"/>
      <point x="175" y="-178"/>
      <point x="108" y="-152"/>
      <point x="45" y="-116" type="curve" smooth="yes"/>
      <point x="4" y="-93"/>
      <point x="-31" y="-120"/>
      <point x="-70" y="-187" type="curve" smooth="yes"/>
      <point x="-106" y="-249"/>
      <point x="-110" y="-290"/>
      <point x="-67" y="-319" type="curve" smooth="yes"/>
      <point x="20" y="-377"/>
      <point x="130" y="-415"/>
      <point x="232" y="-415" type="curve" smooth="yes"/>
      <point x="459" y="-415"/>
      <point x="582" y="-289"/>
      <point x="625" y="-45" type="curve" smooth="yes"/>
      <point x="745" y="639" type="line"/>
      <point x="1056" y="639" type="line" smooth="yes"/>
      <point x="1101" y="639"/>
      <point x="1124" y="662"/>
      <point x="1139" y="751" type="curve" smooth="yes"/>
      <point x="1154" y="840"/>
      <point x="1141" y="864"/>
      <point x="1096" y="864" type="curve" smooth="yes"/>
      <point x="785" y="864" type="line"/>
      <point x="795" y="924" type="line" smooth="yes"/>
      <point x="813" y="1030"/>
      <point x="872" y="1080"/>
      <point x="954" y="1080" type="curve" smooth="yes"/>
    </contour>
  </outline>
</glyph>
<glyph name="g" format="1">
  <advance width="1228"/>
  <unicode hex="0067"/>
  <outline>
    <contour>
      <point x="292" y="946"/>
      <point x="131" y="652"/>
      <point x="131" y="395" type="curve" smooth="yes"/>
      <point x="131" y="180"/>
      <point x="259" y="18"/>
      <point x="489" y="18" type="curve" smooth="yes"/>
      <point x="588" y="18"/>
      <point x="686" y="58"/>
      <point x="764" y="123" type="curve"/>
      <point x="744" y="21" type="line" smooth="yes"/>
      <point x="719" y="-106"/>
      <point x="646" y="-173"/>
      <point x="484" y="-173" type="curve" smooth="yes"/>
      <point x="405" y="-173"/>
      <point x="303" y="-154"/>
      <point x="216" y="-126" type="curve" smooth="yes"/>
      <point x="175" y="-113"/>
      <point x="141" y="-125"/>
      <point x="108" y="-216" type="curve" smooth="yes"/>
      <point x="77" y="-301"/>
      <point x="87" y="-337"/>
      <point x="132" y="-351" type="curve" smooth="yes"/>
      <point x="253" y="-390"/>
      <point x="377" y="-410"/>
      <point x="474" y="-410" type="curve" smooth="yes"/>
      <point x="788" y="-410"/>
      <point x="946" y="-255"/>
      <point x="991" y="1" type="curve" smooth="yes"/>
      <point x="1142" y="861" type="line" smooth="yes"/>
      <point x="1150" y="906"/>
      <point x="1135" y="924"/>
      <point x="1090" y="924" type="curve" smooth="yes"/>
      <point x="1006" y="924" type="line" smooth="yes"/>
      <point x="961" y="924"/>
      <point x="940" y="906"/>
      <point x="932" y="861" type="curve" smooth="yes"/>
      <point x="920" y="791" type="line"/>
      <point x="861" y="892"/>
      <point x="762" y="946"/>
      <point x="634" y="946" type="curve" smooth="yes"/>
    </contour>
    <contour>
      <point x="753" y="714"/>
      <point x="836" y="658"/>
      <point x="836" y="534" type="curve" smooth="yes"/>
      <point x="836" y="390"/>
      <point x="743" y="240"/>
      <point x="559" y="240" type="curve" smooth="yes"/>
      <point x="455" y="240"/>
      <point x="392" y="297"/>
      <point x="392" y="412" type="curve" smooth="yes"/>
      <point x="392" y="551"/>
      <point x="471" y="714"/>
      <point x="644" y="714" type="curve" smooth="yes"/>
    </contour>
  </outline>
</glyph>
<glyph name="h" format="1">
  <advance width="1228"/>
  <unicode hex="0068"/>
  <outline>
    <contour>
      <point x="394" y="1312" type="line" smooth="yes"/>
      <point x="349" y="1312"/>
      <point x="328" y="1294"/>
      <point x="320" y="1249" type="curve" smooth="yes"/>
      <point x="111" y="63" type="line" smooth="yes"/>
      <point x="103" y="18"/>
      <point x="118" y="0"/>
      <point x="163" y="0" type="curve" smooth="yes"/>
      <point x="287" y="0" type="line" smooth="yes"/>
      <point x="332" y="0"/>
      <point x="353" y="18"/>
      <point x="361" y="63" type="curve" smooth="yes"/>
      <point x="413" y="358" type="line" smooth="yes"/>
      <point x="446" y="546"/>
      <point x="611" y="709"/>
      <point x="740" y="709" type="curve" smooth="yes"/>
      <point x="820" y="709"/>
      <point x="854" y="668"/>
      <point x="854" y="600" type="curve" smooth="yes"/>
      <point x="854" y="585"/>
      <point x="852" y="569"/>
      <point x="849" y="551" type="curve" smooth="yes"/>
      <point x="763" y="63" type="line" smooth="yes"/>
      <point x="755" y="18"/>
      <point x="770" y="0"/>
      <point x="815" y="0" type="curve" smooth="yes"/>
      <point x="939" y="0" type="line" smooth="yes"/>
      <point x="984" y="0"/>
      <point x="1005" y="18"/>
      <point x="1013" y="63" type="curve" smooth="yes"/>
      <point x="1105" y="590" type="line" smooth="yes"/>
      <point x="1109" y="614"/>
      <point x="1111" y="637"/>
      <point x="1111" y="660" type="curve" smooth="yes"/>
      <point x="1111" y="825"/>
      <point x="1001" y="946"/>
      <point x="826" y="946" type="curve" smooth="yes"/>
      <point x="700" y="946"/>
      <point x="584" y="883"/>
      <point x="488" y="783" type="curve"/>
      <point x="570" y="1249" type="line" smooth="yes"/>
      <point x="578" y="1294"/>
      <point x="563" y="1312"/>
      <point x="518" y="1312" type="curve" smooth="yes"/>
    </contour>
  </outline>
</glyph>
<glyph name="i" format="1">
  <advance width="1228"/>
  <unicode hex="0069"/>
  <outline>
    <contour>
      <point x="342" y="924" type="line" smooth="yes"/>
      <point x="297" y="924"/>
      <point x="274" y="904"/>
      <point x="259" y="811" type="curve" smooth="yes"/>
      <point x="244" y="718"/>
      <point x="257" y="699"/>
      <point x="302" y="699" type="curve" smooth="yes"/>
      <point x="495" y="699" type="line"/>
      <point x="438" y="368" type="line" smooth="yes"/>
      <point x="432" y="334"/>
      <point x="429" y="302"/>
      <point x="429" y="272" type="curve" smooth="yes"/>
      <point x="429" y="86"/>
      <point x="541" y="-22"/>
      <point x="736" y="-22" type="curve" smooth="yes"/>
      <point x="851" y="-22"/>
      <point x="942" y="2"/>
      <point x="1070" y="74" type="curve" smooth="yes"/>
      <point x="1124" y="105"/>
      <point x="1115" y="149"/>
      <point x="1088" y="207" type="curve" smooth="yes"/>
      <point x="1058" y="272"/>
      <point x="1029" y="300"/>
      <point x="979" y="274" type="curve" smooth="yes"/>
      <point x="901" y="233"/>
      <point x="846" y="215"/>
      <point x="780" y="215" type="curve" smooth="yes"/>
      <point x="717" y="215"/>
      <point x="683" y="246"/>
      <point x="683" y="318" type="curve" smooth="yes"/>
      <point x="683" y="334"/>
      <point x="685" y="352"/>
      <point x="688" y="371" type="curve" smooth="yes"/>
      <point x="774" y="861" type="line" smooth="yes"/>
      <point x="782" y="906"/>
      <point x="767" y="924"/>
      <point x="722" y="924" type="curve" smooth="yes"/>
    </contour>
    <contour>
      <point x="643" y="1383"/>
      <point x="613" y="1365"/>
      <point x="605" y="1320" type="curve" smooth="yes"/>
      <point x="576" y="1156" type="line" smooth="yes"/>
      <point x="568" y="1111"/>
      <point x="597" y="1093"/>
      <point x="692" y="1093" type="curve" smooth="yes"/>
      <point x="787" y="1093"/>
      <point x="818" y="1111"/>
      <point x="826" y="1156" type="curve" smooth="yes"/>
      <point x="855" y="1320" type="line" smooth="yes"/>
      <point x="863" y="1365"/>
      <point x="833" y="1383"/>
      <point x="738" y="1383" type="curve" smooth="yes"/>
    </contour>
  </outline>
</glyph>
<glyph name="j" format="1">
  <advance width="1228"/>
  <unicode hex="006A"/>
  <outline>
    <contour>
      <point x="209" y="-379"/>
      <point x="327" y="-415"/>
      <point x="442" y="-415" type="curve" smooth="yes"/>
      <point x="674" y="-415"/>
      <point x="800" y="-294"/>
      <point x="844" y="-45" type="curve" smooth="yes"/>
      <point x="1004" y="861" type="line" smooth="yes"/>
      <point x="1012" y="906"/>
      <point x="997" y="924"/>
      <point x="952" y="924" type="curve" smooth="yes"/>
      <point x="382" y="924" type="line" smooth="yes"/>
      <point x="337" y="924"/>
      <point x="314" y="904"/>
      <point x="299" y="811" type="curve" smooth="yes"/>
      <point x="284" y="718"/>
      <point x="297" y="699"/>
      <point x="342" y="699" type="curve" smooth="yes"/>
      <point x="725" y="699" type="line"/>
      <point x="599" y="-22" type="line" smooth="yes"/>
      <point x="580" y="-130"/>
      <point x="526" y="-178"/>
      <point x="440" y="-178" type="curve" smooth="yes"/>
      <point x="372" y="-178"/>
      <point x="281" y="-149"/>
      <point x="203" y="-110" type="curve" smooth="yes"/>
      <point x="165" y="-91"/>
      <point x="129" y="-98"/>
      <point x="87" y="-183" type="curve" smooth="yes"/>
      <point x="48" y="-263"/>
      <point x="58" y="-298"/>
      <point x="99" y="-320" type="curve" smooth="yes"/>
    </contour>
    <contour>
      <point x="1085" y="1320" type="line" smooth="yes"/>
      <point x="1093" y="1365"/>
      <point x="1063" y="1383"/>
      <point x="968" y="1383" type="curve" smooth="yes"/>
      <point x="873" y="1383"/>
      <point x="843" y="1365"/>
      <point x="835" y="1320" type="curve" smooth="yes"/>
      <point x="806" y="1156" type="line" smooth="yes"/>
      <point x="798" y="1111"/>
      <point x="827" y="1093"/>
      <point x="922" y="1093" type="curve" smooth="yes"/>
      <point x="1017" y="1093"/>
      <point x="1048" y="1111"/>
      <point x="1056" y="1156" type="curve" smooth="yes"/>
    </contour>
  </outline>
</glyph>
<glyph name="k" format="1">
  <advance width="1228"/>
  <unicode hex="006B"/>
  <outline>
    <contour>
      <point x="427" y="1312" type="line" smooth="yes"/>
      <point x="382" y="1312"/>
      <point x="361" y="1294"/>
      <point x="353" y="1249" type="curve" smooth="yes"/>
      <point x="144" y="63" type="line" smooth="yes"/>
      <point x="136" y="18"/>
      <point x="151" y="0"/>
      <point x="196" y="0" type="curve" smooth="yes"/>
      <point x="320" y="0" type="line" smooth="yes"/>
      <point x="365" y="0"/>
      <point x="386" y="18"/>
      <point x="394" y="63" type="curve" smooth="yes"/>
      <point x="603" y="1249" type="line"/>
      <point x="611" y="1294"/>
      <point x="596" y="1312"/>
      <point x="551" y="1312" type="curve" smooth="yes"/>
    </contour>
    <contour>
      <point x="1029" y="944"/>
      <point x="978" y="949"/>
      <point x="933" y="916" type="curve" smooth="yes"/>
      <point x="403" y="529" type="line"/>
      <point x="381" y="227" type="line"/>
      <point x="1111" y="741" type="line" smooth="yes"/>
      <point x="1160" y="776"/>
      <point x="1156" y="823"/>
      <point x="1087" y="889" type="curve" smooth="yes"/>
    </contour>
    <contour>
      <point x="559" y="417" type="line"/>
      <point x="813" y="14" type="line" smooth="yes"/>
      <point x="838" y="-25"/>
      <point x="877" y="-25"/>
      <point x="957" y="24" type="curve" smooth="yes"/>
      <point x="1048" y="80"/>
      <point x="1053" y="111"/>
      <point x="1022" y="159" type="curve" smooth="yes"/>
      <point x="762" y="563" type="line"/>
    </contour>
  </outline>
</glyph>
<glyph name="l" format="1">
  <advance width="1228"/>
  <unicode hex="006C"/>
  <outline>
    <contour>
      <point x="341" y="1312" type="line" smooth="yes"/>
      <point x="296" y="1312"/>
      <point x="273" y="1292"/>
      <point x="258" y="1199" type="curve" smooth="yes"/>
      <point x="243" y="1106"/>
      <point x="256" y="1087"/>
      <point x="301" y="1087" type="curve" smooth="yes"/>
      <point x="534" y="1087" type="line"/>
      <point x="408" y="368" type="line" smooth="yes"/>
      <point x="402" y="334"/>
      <point x="399" y="302"/>
      <point x="399" y="272" type="curve" smooth="yes"/>
      <point x="399" y="86"/>
      <point x="511" y="-22"/>
      <point x="706" y="-22" type="curve" smooth="yes"/>
      <point x="821" y="-22"/>
      <point x="912" y="2"/>
      <point x="1040" y="74" type="curve" smooth="yes"/>
      <point x="1094" y="105"/>
      <point x="1085" y="149"/>
      <point x="1058" y="207" type="curve" smooth="yes"/>
      <point x="1028" y="272"/>
      <point x="999" y="300"/>
      <point x="949" y="274" type="curve" smooth="yes"/>
      <point x="871" y="233"/>
      <point x="816" y="215"/>
      <point x="750" y="215" type="curve" smooth="yes"/>
      <point x="687" y="215"/>
      <point x="653" y="246"/>
      <point x="653" y="318" type="curve" smooth="yes"/>
      <point x="653" y="334"/>
      <point x="655" y="352"/>
      <point x="658" y="371" type="curve" smooth="yes"/>
      <point x="813" y="1249" type="line" smooth="yes"/>
      <point x="821" y="1294"/>
      <point x="806" y="1312"/>
      <point x="761" y="1312" type="curve" smooth="yes"/>
    </contour>
  </outline>
</glyph>
<glyph name="m" format="1">
  <advance width="1228"/>
  <unicode hex="006D"/>
  <outline>
    <contour>
      <point x="940" y="946"/>
      <point x="839" y="878"/>
      <point x="764" y="743" type="curve"/>
      <point x="755" y="871"/>
      <point x="708" y="946"/>
      <point x="604" y="946" type="curve" smooth="yes"/>
      <point x="512" y="946"/>
      <point x="426" y="875"/>
      <point x="348" y="737" type="curve"/>
      <point x="369" y="861" type="line" smooth="yes"/>
      <point x="377" y="906"/>
      <point x="362" y="924"/>
      <point x="317" y="924" type="curve" smooth="yes"/>
      <point x="243" y="924" type="line" smooth="yes"/>
      <point x="198" y="924"/>
      <point x="177" y="906"/>
      <point x="169" y="861" type="curve" smooth="yes"/>
      <point x="29" y="63" type="line" smooth="yes"/>
      <point x="21" y="18"/>
      <point x="36" y="0"/>
      <point x="81" y="0" type="curve" smooth="yes"/>
      <point x="205" y="0" type="line" smooth="yes"/>
      <point x="250" y="0"/>
      <point x="271" y="18"/>
      <point x="279" y="63" type="curve" smooth="yes"/>
      <point x="339" y="403" type="line" smooth="yes"/>
      <point x="372" y="595"/>
      <point x="430" y="689"/>
      <point x="491" y="689" type="curve" smooth="yes"/>
      <point x="518" y="689"/>
      <point x="530" y="671"/>
      <point x="530" y="635" type="curve" smooth="yes"/>
      <point x="530" y="621"/>
      <point x="528" y="605"/>
      <point x="525" y="586" type="curve" smooth="yes"/>
      <point x="433" y="63" type="line" smooth="yes"/>
      <point x="425" y="18"/>
      <point x="440" y="0"/>
      <point x="485" y="0" type="curve" smooth="yes"/>
      <point x="609" y="0" type="line" smooth="yes"/>
      <point x="654" y="0"/>
      <point x="675" y="18"/>
      <point x="683" y="63" type="curve" smooth="yes"/>
      <point x="743" y="403" type="line" smooth="yes"/>
      <point x="776" y="595"/>
      <point x="834" y="689"/>
      <point x="895" y="689" type="curve" smooth="yes"/>
      <point x="922" y="689"/>
      <point x="934" y="671"/>
      <point x="934" y="635" type="curve" smooth="yes"/>
      <point x="934" y="621"/>
      <point x="932" y="605"/>
      <point x="929" y="586" type="curve" smooth="yes"/>
      <point x="837" y="63" type="line" smooth="yes"/>
      <point x="829" y="18"/>
      <point x="844" y="0"/>
      <point x="889" y="0" type="curve" smooth="yes"/>
      <point x="1013" y="0" type="line" smooth="yes"/>
      <point x="1058" y="0"/>
      <point x="1079" y="18"/>
      <point x="1087" y="63" type="curve" smooth="yes"/>
      <point x="1187" y="633" type="line" smooth="yes"/>
      <point x="1194" y="671"/>
      <point x="1197" y="705"/>
      <point x="1197" y="736" type="curve" smooth="yes"/>
      <point x="1197" y="878"/>
      <point x="1130" y="946"/>
      <point x="1034" y="946" type="curve" smooth="yes"/>
    </contour>
  </outline>
</glyph>
<glyph name="n" format="1">
  <advance width="1228"/>
  <unicode hex="006E"/>
  <outline>
    <contour>
      <point x="681" y="946"/>
      <point x="552" y="863"/>
      <point x="450" y="736" type="curve"/>
      <point x="471" y="861" type="line" smooth="yes"/>
      <point x="479" y="906"/>
      <point x="464" y="924"/>
      <point x="419" y="924" type="curve" smooth="yes"/>
      <point x="325" y="924" type="line" smooth="yes"/>
      <point x="280" y="924"/>
      <point x="259" y="906"/>
      <point x="251" y="861" type="curve" smooth="yes"/>
      <point x="111" y="63" type="line" smooth="yes"/>
      <point x="103" y="18"/>
      <point x="118" y="0"/>
      <point x="163" y="0" type="curve" smooth="yes"/>
      <point x="287" y="0" type="line" smooth="yes"/>
      <point x="332" y="0"/>
      <point x="353" y="18"/>
      <point x="361" y="63" type="curve" smooth="yes"/>
      <point x="413" y="358" type="line" smooth="yes"/>
      <point x="446" y="546"/>
      <point x="611" y="709"/>
      <point x="740" y="709" type="curve" smooth="yes"/>
      <point x="820" y="709"/>
      <point x="854" y="668"/>
      <point x="854" y="600" type="curve" smooth="yes"/>
      <point x="854" y="585"/>
      <point x="852" y="569"/>
      <point x="849" y="551" type="curve" smooth="yes"/>
      <point x="763" y="63" type="line" smooth="yes"/>
      <point x="755" y="18"/>
      <point x="770" y="0"/>
      <point x="815" y="0" type="curve" smooth="yes"/>
      <point x="939" y="0" type="line" smooth="yes"/>
      <point x="984" y="0"/>
      <point x="1005" y="18"/>
      <point x="1013" y="63" type="curve" smooth="yes"/>
      <point x="1105" y="590" type="line" smooth="yes"/>
      <point x="1109" y="614"/>
      <point x="1111" y="637"/>
      <point x="1111" y="660" type="curve" smooth="yes"/>
      <point x="1111" y="825"/>
      <point x="1001" y="946"/>
      <point x="826" y="946" type="curve" smooth="yes"/>
    </contour>
  </outline>
</glyph>
<glyph name="p" format="1">
  <advance width="1228"/>
  <unicode hex="0070"/>
  <outline>
    <contour>
      <point x="799" y="714"/>
      <point x="861" y="645"/>
      <point x="861" y="533" type="curve" smooth="yes"/>
      <point x="861" y="399"/>
      <point x="788" y="210"/>
      <point x="606" y="210" type="curve" smooth="yes"/>
      <point x="497" y="210"/>
      <point x="415" y="277"/>
      <point x="415" y="402" type="curve" smooth="yes"/>
      <point x="415" y="547"/>
      <point x="514" y="714"/>
      <point x="694" y="714" type="curve" smooth="yes"/>
    </contour>
    <contour>
      <point x="458" y="861" type="line" smooth="yes"/>
      <point x="465" y="906"/>
      <point x="451" y="924"/>
      <point x="406" y="924" type="curve" smooth="yes"/>
      <point x="322" y="924" type="line" smooth="yes"/>
      <point x="277" y="924"/>
      <point x="256" y="906"/>
      <point x="248" y="861" type="curve" smooth="yes"/>
      <point x="38" y="-330" type="line" smooth="yes"/>
      <point x="30" y="-375"/>
      <point x="45" y="-393"/>
      <point x="90" y="-393" type="curve" smooth="yes"/>
      <point x="214" y="-393" type="line" smooth="yes"/>
      <point x="259" y="-393"/>
      <point x="280" y="-375"/>
      <point x="288" y="-330" type="curve" smooth="yes"/>
      <point x="364" y="101" type="line"/>
      <point x="420" y="25"/>
      <point x="510" y="-22"/>
      <point x="616" y="-22" type="curve" smooth="yes"/>
      <point x="959" y="-22"/>
      <point x="1121" y="292"/>
      <point x="1121" y="544" type="curve" smooth="yes"/>
      <point x="1121" y="780"/>
      <point x="985" y="946"/>
      <point x="766" y="946" type="curve" smooth="yes"/>
      <point x="635" y="946"/>
      <point x="524" y="881"/>
      <point x="446" y="789" type="curve"/>
    </contour>
  </outline>
</glyph>
<glyph name="q" format="1">
  <advance width="1228"/>
  <unicode hex="0071"/>
  <outline>
    <contour>
      <point x="291" y="946"/>
      <point x="129" y="632"/>
      <point x="129" y="380" type="curve" smooth="yes"/>
      <point x="129" y="144"/>
      <point x="265" y="-22"/>
      <point x="484" y="-22" type="curve" smooth="yes"/>
      <point x="587" y="-22"/>
      <point x="677" y="21"/>
      <point x="757" y="91" type="curve"/>
      <point x="682" y="-330" type="line" smooth="yes"/>
      <point x="674" y="-375"/>
      <point x="689" y="-393"/>
      <point x="734" y="-393" type="curve" smooth="yes"/>
      <point x="858" y="-393" type="line" smooth="yes"/>
      <point x="903" y="-393"/>
      <point x="924" y="-375"/>
      <point x="932" y="-330" type="curve" smooth="yes"/>
      <point x="1142" y="861" type="line" smooth="yes"/>
      <point x="1150" y="906"/>
      <point x="1135" y="924"/>
      <point x="1090" y="924" type="curve" smooth="yes"/>
      <point x="1006" y="924" type="line" smooth="yes"/>
      <point x="961" y="924"/>
      <point x="940" y="906"/>
      <point x="932" y="861" type="curve" smooth="yes"/>
      <point x="917" y="772" type="line"/>
      <point x="867" y="877"/>
      <point x="762" y="946"/>
      <point x="634" y="946" type="curve" smooth="yes"/>
    </contour>
    <contour>
      <point x="753" y="714"/>
      <point x="835" y="647"/>
      <point x="835" y="522" type="curve" smooth="yes"/>
      <point x="835" y="377"/>
      <point x="736" y="210"/>
      <point x="556" y="210" type="curve" smooth="yes"/>
      <point x="451" y="210"/>
      <point x="389" y="279"/>
      <point x="389" y="391" type="curve" smooth="yes"/>
      <point x="389" y="525"/>
      <point x="462" y="714"/>
      <point x="644" y="714" type="curve" smooth="yes"/>
    </contour>
  </outline>
</glyph>
<glyph name="s" format="1">
  <advance width="1228"/>
  <unicode hex="0073"/>
  <outline>
    <contour>
      <point x="378" y="946"/>
      <point x="206" y="821"/>
      <point x="206" y="610" type="curve" smooth="yes"/>
      <point x="206" y="516"/>
      <point x="249" y="458"/>
      <point x="312" y="422" type="curve" smooth="yes"/>
      <point x="429" y="354"/>
      <point x="615" y="359"/>
      <point x="717" y="336" type="curve" smooth="yes"/>
      <point x="762" y="326"/>
      <point x="790" y="310"/>
      <point x="790" y="281" type="curve" smooth="yes"/>
      <point x="790" y="226"/>
      <point x="731" y="190"/>
      <point x="587" y="190" type="curve" smooth="yes"/>
      <point x="484" y="190"/>
      <point x="369" y="209"/>
      <point x="248" y="255" type="curve" smooth="yes"/>
      <point x="210" y="270"/>
      <point x="166" y="256"/>
      <point x="140" y="176" type="curve" smooth="yes"/>
      <point x="115" y="99"/>
      <point x="134" y="65"/>
      <point x="174" y="50" type="curve" smooth="yes"/>
      <point x="304" y="3"/>
      <point x="454" y="-22"/>
      <point x="592" y="-22" type="curve" smooth="yes"/>
      <point x="896" y="-22"/>
      <point x="1054" y="121"/>
      <point x="1054" y="329" type="curve" smooth="yes"/>
      <point x="1054" y="423"/>
      <point x="1008" y="479"/>
      <point x="943" y="514" type="curve" smooth="yes"/>
      <point x="823" y="578"/>
      <point x="637" y="570"/>
      <point x="536" y="592" type="curve" smooth="yes"/>
      <point x="493" y="601"/>
      <point x="466" y="616"/>
      <point x="466" y="643" type="curve" smooth="yes"/>
      <point x="466" y="702"/>
      <point x="525" y="734"/>
      <point x="637" y="734" type="curve" smooth="yes"/>
      <point x="740" y="734"/>
      <point x="855" y="715"/>
      <point x="975" y="669" type="curve" smooth="yes"/>
      <point x="1014" y="654"/>
      <point x="1058" y="670"/>
      <point x="1084" y="748" type="curve" smooth="yes"/>
      <point x="1110" y="826"/>
      <point x="1090" y="859"/>
      <point x="1050" y="874" type="curve" smooth="yes"/>
      <point x="920" y="921"/>
      <point x="770" y="946"/>
      <point x="632" y="946" type="curve" smooth="yes"/>
    </contour>
  </outline>
</glyph>
<glyph name="t" format="1">
  <advance width="1228"/>
  <unicode hex="0074"/>
  <outline>
    <contour>
      <point x="533" y="1209"/>
      <point x="493" y="1191"/>
      <point x="485" y="1146" type="curve" smooth="yes"/>
      <point x="348" y="368" type="line" smooth="yes"/>
      <point x="342" y="334"/>
      <point x="339" y="303"/>
      <point x="339" y="273" type="curve" smooth="yes"/>
      <point x="339" y="83"/>
      <point x="455" y="-22"/>
      <point x="656" y="-22" type="curve" smooth="yes"/>
      <point x="771" y="-22"/>
      <point x="899" y="21"/>
      <point x="1031" y="82" type="curve" smooth="yes"/>
      <point x="1079" y="104"/>
      <point x="1091" y="136"/>
      <point x="1064" y="210" type="curve" smooth="yes"/>
      <point x="1035" y="289"/>
      <point x="1004" y="307"/>
      <point x="959" y="288" type="curve" smooth="yes"/>
      <point x="866" y="248"/>
      <point x="766" y="215"/>
      <point x="698" y="215" type="curve" smooth="yes"/>
      <point x="630" y="215"/>
      <point x="593" y="248"/>
      <point x="593" y="321" type="curve" smooth="yes"/>
      <point x="593" y="336"/>
      <point x="595" y="354"/>
      <point x="598" y="371" type="curve" smooth="yes"/>
      <point x="735" y="1146" type="line" smooth="yes"/>
      <point x="743" y="1191"/>
      <point x="723" y="1209"/>
      <point x="628" y="1209" type="curve" smooth="yes"/>
    </contour>
    <contour>
      <point x="242" y="864" type="line" smooth="yes"/>
      <point x="197" y="864"/>
      <point x="174" y="840"/>
      <point x="159" y="751" type="curve" smooth="yes"/>
      <point x="144" y="662"/>
      <point x="157" y="639"/>
      <point x="202" y="639" type="curve" smooth="yes"/>
      <point x="1016" y="639" type="line" smooth="yes"/>
      <point x="1061" y="639"/>
      <point x="1084" y="662"/>
      <point x="1099" y="751" type="curve" smooth="yes"/>
      <point x="1114" y="840"/>
      <point x="1101" y="864"/>
      <point x="1056" y="864" type="curve" smooth="yes"/>
    </contour>
  </outline>
</glyph>
<glyph name="v" format="1">
  <advance width="1228"/>
  <unicode hex="0076"/>
  <outline>
    <contour>
      <point x="1005" y="953"/>
      <point x="963" y="944"/>
      <point x="937" y="900" type="curve" smooth="yes"/>
      <point x="581" y="298" type="line"/>
      <point x="436" y="890" type="line" smooth="yes"/>
      <point x="425" y="934"/>
      <point x="389" y="942"/>
      <point x="296" y="926" type="curve" smooth="yes"/>
      <point x="206" y="911"/>
      <point x="175" y="881"/>
      <point x="187" y="836" type="curve" smooth="yes"/>
      <point x="397" y="43" type="line" smooth="yes"/>
      <point x="409" y="-1"/>
      <point x="440" y="-22"/>
      <point x="537" y="-22" type="curve" smooth="yes"/>
      <point x="633" y="-22"/>
      <point x="673" y="-2"/>
      <point x="701" y="43" type="curve" smooth="yes"/>
      <point x="1184" y="820" type="line" smooth="yes"/>
      <point x="1213" y="866"/>
      <point x="1191" y="898"/>
      <point x="1097" y="926" type="curve" smooth="yes"/>
    </contour>
  </outline>
</glyph>
<glyph name="w" format="1">
  <advance width="1228"/>
  <unicode hex="0077"/>
  <outline>
    <contour>
      <point x="1080" y="946"/>
      <point x="1039" y="935"/>
      <point x="1022" y="888" type="curve" smooth="yes"/>
      <point x="836" y="373" type="line"/>
      <point x="754" y="717" type="line" smooth="yes"/>
      <point x="746" y="751"/>
      <point x="725" y="767"/>
      <point x="666" y="767" type="curve" smooth="yes"/>
      <point x="608" y="767"/>
      <point x="581" y="745"/>
      <point x="560" y="710" type="curve" smooth="yes"/>
      <point x="355" y="373" type="line"/>
      <point x="358" y="878" type="line" smooth="yes"/>
      <point x="358" y="925"/>
      <point x="327" y="935"/>
      <point x="240" y="930" type="curve" smooth="yes"/>
      <point x="153" y="925"/>
      <point x="128" y="902"/>
      <point x="129" y="855" type="curve" smooth="yes"/>
      <point x="140" y="43" type="line" smooth="yes"/>
      <point x="141" y="-4"/>
      <point x="167" y="-22"/>
      <point x="248" y="-22" type="curve" smooth="yes"/>
      <point x="329" y="-22"/>
      <point x="371" y="-1"/>
      <point x="398" y="43" type="curve" smooth="yes"/>
      <point x="610" y="395" type="line"/>
      <point x="694" y="43" type="line" smooth="yes"/>
      <point x="704" y="-1"/>
      <point x="739" y="-22"/>
      <point x="820" y="-22" type="curve" smooth="yes"/>
      <point x="901" y="-22"/>
      <point x="935" y="-5"/>
      <point x="952" y="43" type="curve"/>
      <point x="1249" y="841" type="line" smooth="yes"/>
      <point x="1266" y="888"/>
      <point x="1248" y="914"/>
      <point x="1163" y="930" type="curve" smooth="yes"/>
    </contour>
  </outline>
</glyph>
<glyph name="y" format="1">
  <advance width="1228"/>
  <unicode hex="0079"/>
  <outline>
    <contour>
      <point x="1184" y="820" type="line" smooth="yes"/>
      <point x="1213" y="866"/>
      <point x="1191" y="898"/>
      <point x="1097" y="926" type="curve" smooth="yes"/>
      <point x="1005" y="953"/>
      <point x="963" y="944"/>
      <point x="937" y="900" type="curve" smooth="yes"/>
      <point x="581" y="298" type="line"/>
      <point x="436" y="890" type="line" smooth="yes"/>
      <point x="425" y="934"/>
      <point x="389" y="942"/>
      <point x="296" y="926" type="curve" smooth="yes"/>
      <point x="206" y="911"/>
      <point x="175" y="881"/>
      <point x="187" y="836" type="curve" smooth="yes"/>
      <point x="423" y="-55" type="line"/>
      <point x="509" y="17" type="line"/>
      <point x="462" y="100" type="line"/>
      <point x="318" y="-109"/>
      <point x="251" y="-179"/>
      <point x="92" y="-188" type="curve" smooth="yes"/>
      <point x="56" y="-190"/>
      <point x="28" y="-220"/>
      <point x="28" y="-311" type="curve" smooth="yes"/>
      <point x="28" y="-394"/>
      <point x="52" y="-415"/>
      <point x="92" y="-414" type="curve" smooth="yes"/>
      <point x="337" y="-406"/>
      <point x="461" y="-342"/>
      <point x="638" y="-57" type="curve" smooth="yes"/>
    </contour>
  </outline>
</glyph>
<glyph name="braceleft" format="1">
  <advance width="1228"/>
  <unicode hex="007B"/>
  <outline>
    <contour>
      <point x="749" y="1312"/>
      <point x="591" y="1208"/>
      <point x="545" y="949" type="curve" smooth="yes"/>
      <point x="513" y="770" type="line" smooth="yes"/>
      <point x="492" y="653"/>
      <point x="427" y="588"/>
      <point x="300" y="588" type="curve" smooth="yes"/>
      <point x="255" y="588"/>
      <point x="234" y="571"/>
      <point x="219" y="482" type="curve" smooth="yes"/>
      <point x="204" y="393"/>
      <point x="219" y="375"/>
      <point x="264" y="375" type="curve" smooth="yes"/>
      <point x="391" y="375"/>
      <point x="433" y="310"/>
      <point x="412" y="193" type="curve" smooth="yes"/>
      <point x="380" y="10" type="line" smooth="yes"/>
      <point x="335" y="-247"/>
      <point x="448" y="-393"/>
      <point x="715" y="-393" type="curve" smooth="yes"/>
      <point x="760" y="-393"/>
      <point x="782" y="-375"/>
      <point x="797" y="-286" type="curve" smooth="yes"/>
      <point x="812" y="-197"/>
      <point x="797" y="-180"/>
      <point x="752" y="-180" type="curve" smooth="yes"/>
      <point x="648" y="-180"/>
      <point x="605" y="-124"/>
      <point x="628" y="2" type="curve" smooth="yes"/>
      <point x="659" y="183" type="line" smooth="yes"/>
      <point x="683" y="320"/>
      <point x="638" y="420"/>
      <point x="552" y="472" type="curve"/>
      <point x="653" y="522"/>
      <point x="734" y="603"/>
      <point x="758" y="740" type="curve" smooth="yes"/>
      <point x="789" y="917" type="line" smooth="yes"/>
      <point x="812" y="1043"/>
      <point x="876" y="1099"/>
      <point x="980" y="1099" type="curve" smooth="yes"/>
      <point x="1025" y="1099"/>
      <point x="1045" y="1115"/>
      <point x="1060" y="1204" type="curve" smooth="yes"/>
      <point x="1075" y="1293"/>
      <point x="1061" y="1312"/>
      <point x="1016" y="1312" type="curve" smooth="yes"/>
    </contour>
  </outline>
</glyph>
<glyph name="yen" format="1">
  <advance width="1228"/>
  <unicode hex="00A5"/>
  <outline>
    <contour>
      <point x="1002" y="267" type="line" smooth="yes"/>
      <point x="1047" y="267"/>
      <point x="1068" y="284"/>
      <point x="1084" y="379" type="curve" smooth="yes"/>
      <point x="1101" y="474"/>
      <point x="1086" y="492"/>
      <point x="1041" y="492" type="curve" smooth="yes"/>
      <point x="219" y="492" type="line" smooth="yes"/>
      <point x="174" y="492"/>
      <point x="153" y="474"/>
      <point x="136" y="379" type="curve" smooth="yes"/>
      <point x="120" y="284"/>
      <point x="135" y="267"/>
      <point x="180" y="267" type="curve" smooth="yes"/>
    </contour>
    <contour>
      <point x="431" y="850" type="line"/>
      <point x="262" y="850" type="line" smooth="yes"/>
      <point x="217" y="850"/>
      <point x="196" y="832"/>
      <point x="179" y="737" type="curve" smooth="yes"/>
      <point x="163" y="642"/>
      <point x="178" y="625"/>
      <point x="223" y="625" type="curve" smooth="yes"/>
      <point x="522" y="625" type="line"/>
    </contour>
    <contour>
      <point x="738" y="625" type="line"/>
      <point x="1085" y="625" type="line" smooth="yes"/>
      <point x="1130" y="625"/>
      <point x="1151" y="642"/>
      <point x="1167" y="737" type="curve" smooth="yes"/>
      <point x="1184" y="832"/>
      <point x="1169" y="850"/>
      <point x="1124" y="850" type="curve" smooth="yes"/>
      <point x="917" y="850" type="line"/>
    </contour>
    <component base="Y" xOffset="-8"/>
  </outline>
</glyph>
<glyph name="ordfeminine" format="1">
  <advance width="1228"/>
  <unicode hex="00AA"/>
  <outline>
    <contour>
      <point x="438" y="1209"/>
      <point x="311" y="968"/>
      <point x="311" y="774" type="curve" smooth="yes"/>
      <point x="311" y="602"/>
      <point x="416" y="465"/>
      <point x="596" y="465" type="curve" smooth="yes"/>
      <point x="685" y="465"/>
      <point x="775" y="501"/>
      <point x="850" y="580" type="curve"/>
      <point x="836" y="589" type="line"/>
      <point x="824" y="523" type="line" smooth="yes"/>
      <point x="818" y="488"/>
      <point x="833" y="474"/>
      <point x="890" y="474" type="curve" smooth="yes"/>
      <point x="948" y="474"/>
      <point x="979" y="488"/>
      <point x="985" y="523" type="curve" smooth="yes"/>
      <point x="1095" y="1151" type="line" smooth="yes"/>
      <point x="1101" y="1186"/>
      <point x="1086" y="1200"/>
      <point x="1029" y="1200" type="curve" smooth="yes"/>
      <point x="971" y="1200"/>
      <point x="940" y="1186"/>
      <point x="934" y="1151" type="curve" smooth="yes"/>
      <point x="922" y="1079" type="line"/>
      <point x="883" y="1160"/>
      <point x="802" y="1209"/>
      <point x="703" y="1209" type="curve" smooth="yes"/>
    </contour>
    <contour>
      <point x="795" y="1035"/>
      <point x="858" y="982"/>
      <point x="858" y="883" type="curve" smooth="yes"/>
      <point x="858" y="770"/>
      <point x="780" y="640"/>
      <point x="642" y="640" type="curve" smooth="yes"/>
      <point x="561" y="640"/>
      <point x="515" y="694"/>
      <point x="515" y="783" type="curve" smooth="yes"/>
      <point x="515" y="882"/>
      <point x="571" y="1035"/>
      <point x="711" y="1035" type="curve" smooth="yes"/>
    </contour>
  </outline>
</glyph>
<glyph name="logicalnot" format="1">
  <advance width="1228"/>
  <unicode hex="00AC"/>
  <outline>
    <contour>
      <point x="261" y="845" type="line" smooth="yes"/>
      <point x="216" y="845"/>
      <point x="194" y="827"/>
      <point x="179" y="733" type="curve" smooth="yes"/>
      <point x="163" y="639"/>
      <point x="177" y="620"/>
      <point x="222" y="620" type="curve" smooth="yes"/>
      <point x="887" y="620" type="line"/>
      <point x="839" y="348" type="line" smooth="yes"/>
      <point x="831" y="303"/>
      <point x="851" y="285"/>
      <point x="946" y="285" type="curve" smooth="yes"/>
      <point x="1041" y="285"/>
      <point x="1081" y="303"/>
      <point x="1089" y="348" type="curve" smooth="yes"/>
      <point x="1165" y="780" type="line" smooth="yes"/>
      <point x="1173" y="826"/>
      <point x="1157" y="845"/>
      <point x="1111" y="845" type="curve" smooth="yes"/>
    </contour>
  </outline>
</glyph>
<glyph name="threesuperior" format="1">
  <advance width="1228"/>
  <unicode hex="00B3"/>
  <outline>
    <contour>
      <point x="823" y="1161"/>
      <point x="860" y="1133"/>
      <point x="860" y="1088" type="curve" smooth="yes"/>
      <point x="860" y="1064"/>
      <point x="850" y="1042"/>
      <point x="836" y="1026" type="curve" smooth="yes"/>
      <point x="812" y="999"/>
      <point x="774" y="988"/>
      <point x="719" y="988" type="curve" smooth="yes"/>
      <point x="615" y="988" type="line" smooth="yes"/>
      <point x="584" y="988"/>
      <point x="563" y="966"/>
      <point x="552" y="902" type="curve" smooth="yes"/>
      <point x="540" y="838"/>
      <point x="554" y="816"/>
      <point x="585" y="816" type="curve" smooth="yes"/>
      <point x="708" y="816" type="line" smooth="yes"/>
      <point x="769" y="816"/>
      <point x="801" y="790"/>
      <point x="801" y="746" type="curve" smooth="yes"/>
      <point x="801" y="721"/>
      <point x="792" y="693"/>
      <point x="774" y="676" type="curve" smooth="yes"/>
      <point x="749" y="652"/>
      <point x="704" y="638"/>
      <point x="636" y="638" type="curve" smooth="yes"/>
      <point x="560" y="638"/>
      <point x="476" y="662"/>
      <point x="413" y="690" type="curve" smooth="yes"/>
      <point x="390" y="700"/>
      <point x="357" y="677"/>
      <point x="337" y="623" type="curve" smooth="yes"/>
      <point x="316" y="567"/>
      <point x="323" y="533"/>
      <point x="355" y="519" type="curve" smooth="yes"/>
      <point x="424" y="487"/>
      <point x="535" y="465"/>
      <point x="634" y="465" type="curve" smooth="yes"/>
      <point x="775" y="465"/>
      <point x="877" y="495"/>
      <point x="939" y="559" type="curve" smooth="yes"/>
      <point x="986" y="607"/>
      <point x="1010" y="682"/>
      <point x="1010" y="739" type="curve" smooth="yes"/>
      <point x="1010" y="811"/>
      <point x="973" y="867"/>
      <point x="907" y="897" type="curve"/>
      <point x="1008" y="938"/>
      <point x="1063" y="1008"/>
      <point x="1063" y="1112" type="curve" smooth="yes"/>
      <point x="1063" y="1243"/>
      <point x="961" y="1334"/>
      <point x="767" y="1334" type="curve" smooth="yes"/>
      <point x="669" y="1334"/>
      <point x="561" y="1315"/>
      <point x="471" y="1280" type="curve" smooth="yes"/>
      <point x="436" y="1266"/>
      <point x="420" y="1237"/>
      <point x="436" y="1174" type="curve" smooth="yes"/>
      <point x="452" y="1110"/>
      <point x="482" y="1101"/>
      <point x="514" y="1113" type="curve" smooth="yes"/>
      <point x="595" y="1144"/>
      <point x="675" y="1161"/>
      <point x="743" y="1161" type="curve" smooth="yes"/>
    </contour>
  </outline>
</glyph>
<glyph name="paragraph" format="1">
  <advance width="1228"/>
  <unicode hex="00B6"/>
  <outline>
    <contour>
      <point x="738" y="962" type="line"/>
      <point x="506" y="-352" type="line" smooth="yes"/>
      <point x="498" y="-397"/>
      <point x="458" y="-415"/>
      <point x="383" y="-415" type="curve" smooth="yes"/>
      <point x="308" y="-415"/>
      <point x="288" y="-397"/>
      <point x="296" y="-352" type="curve" smooth="yes"/>
      <point x="436" y="440" type="line"/>
      <point x="269" y="467"/>
      <point x="170" y="585"/>
      <point x="170" y="751" type="curve" smooth="yes"/>
      <point x="170" y="980"/>
      <point x="328" y="1187"/>
      <point x="658" y="1187" type="curve" smooth="yes"/>
      <point x="1214" y="1187" type="line" smooth="yes"/>
      <point x="1259" y="1187"/>
      <point x="1272" y="1167"/>
      <point x="1257" y="1074" type="curve" smooth="yes"/>
      <point x="1242" y="981"/>
      <point x="1219" y="962"/>
      <point x="1174" y="962" type="curve" smooth="yes"/>
      <point x="1108" y="962" type="line"/>
      <point x="876" y="-352" type="line" smooth="yes"/>
      <point x="868" y="-397"/>
      <point x="828" y="-415"/>
      <point x="753" y="-415" type="curve" smooth="yes"/>
      <point x="678" y="-415"/>
      <point x="658" y="-397"/>
      <point x="666" y="-352" type="curve" smooth="yes"/>
      <point x="898" y="962" type="line"/>
    </contour>
  </outline>
</glyph>
<glyph name="Eth" format="1">
  <advance width="1228"/>
  <unicode hex="00D0"/>
  <outline>
    <contour>
      <point x="159" y="719" type="line" smooth="yes"/>
      <point x="114" y="719"/>
      <point x="93" y="701"/>
      <point x="76" y="606" type="curve" smooth="yes"/>
      <point x="60" y="511"/>
      <point x="75" y="494"/>
      <point x="120" y="494" type="curve" smooth="yes"/>
      <point x="632" y="494" type="line" smooth="yes"/>
      <point x="677" y="494"/>
      <point x="698" y="511"/>
      <point x="714" y="606" type="curve" smooth="yes"/>
      <point x="731" y="701"/>
      <point x="716" y="719"/>
      <point x="671" y="719" type="curve" smooth="yes"/>
    </contour>
    <contour>
      <point x="392" y="1187" type="line" smooth="yes"/>
      <point x="347" y="1187"/>
      <point x="326" y="1169"/>
      <point x="318" y="1124" type="curve" smooth="yes"/>
      <point x="131" y="63" type="line" smooth="yes"/>
      <point x="123" y="18"/>
      <point x="138" y="0"/>
      <point x="183" y="0" type="curve" smooth="yes"/>
      <point x="535" y="0" type="line" smooth="yes"/>
      <point x="747" y="0"/>
      <point x="919" y="84"/>
      <point x="1034" y="241" type="curve" smooth="yes"/>
      <point x="1129" y="371"/>
      <point x="1176" y="554"/>
      <point x="1176" y="706" type="curve" smooth="yes"/>
      <point x="1176" y="1000"/>
      <point x="1007" y="1187"/>
      <point x="707" y="1187" type="curve" smooth="yes"/>
    </contour>
    <contour>
      <point x="839" y="952"/>
      <point x="914" y="864"/>
      <point x="914" y="705" type="curve" smooth="yes"/>
      <point x="914" y="591"/>
      <point x="877" y="447"/>
      <point x="803" y="354" type="curve" smooth="yes"/>
      <point x="741" y="277"/>
      <point x="649" y="235"/>
      <point x="541" y="235" type="curve" smooth="yes"/>
      <point x="411" y="235" type="line"/>
      <point x="537" y="952" type="line"/>
      <point x="687" y="952" type="line" smooth="yes"/>
    </contour>
  </outline>
</glyph>
<glyph name="oslash" format="1">
  <advance width="1228"/>
  <unicode hex="00F8"/>
  <outline>
    <contour>
      <point x="116" y="130" type="line" smooth="yes"/>
      <point x="80" y="98"/>
      <point x="75" y="72"/>
      <point x="120" y="20" type="curve" smooth="yes"/>
      <point x="165" y="-32"/>
      <point x="191" y="-32"/>
      <point x="228" y="1" type="curve" smooth="yes"/>
      <point x="1134" y="794" type="line" smooth="yes"/>
      <point x="1170" y="826"/>
      <point x="1175" y="852"/>
      <point x="1130" y="904" type="curve" smooth="yes"/>
      <point x="1085" y="956"/>
      <point x="1059" y="956"/>
      <point x="1022" y="923" type="curve" smooth="yes"/>
    </contour>
    <component base="o"/>
  </outline>
</glyph>
<glyph name="thorn" format="1">
  <advance width="1228"/>
  <unicode hex="00FE"/>
  <outline>
    <contour>
      <point x="799" y="714"/>
      <point x="861" y="645"/>
      <point x="861" y="533" type="curve" smooth="yes"/>
      <point x="861" y="399"/>
      <point x="788" y="210"/>
      <point x="606" y="210" type="curve" smooth="yes"/>
      <point x="497" y="210"/>
      <point x="415" y="277"/>
      <point x="415" y="402" type="curve" smooth="yes"/>
      <point x="415" y="547"/>
      <point x="514" y="714"/>
      <point x="694" y="714" type="curve" smooth="yes"/>
    </contour>
    <contour>
      <point x="566" y="1249" type="line" smooth="yes"/>
      <point x="574" y="1294"/>
      <point x="559" y="1312"/>
      <point x="514" y="1312" type="curve" smooth="yes"/>
      <point x="390" y="1312" type="line" smooth="yes"/>
      <point x="345" y="1312"/>
      <point x="324" y="1294"/>
      <point x="316" y="1249" type="curve" smooth="yes"/>
      <point x="38" y="-330" type="line" smooth="yes"/>
      <point x="30" y="-375"/>
      <point x="45" y="-393"/>
      <point x="90" y="-393" type="curve" smooth="yes"/>
      <point x="214" y="-393" type="line" smooth="yes"/>
      <point x="259" y="-393"/>
      <point x="280" y="-375"/>
      <point x="288" y="-330" type="curve" smooth="yes"/>
      <point x="364" y="101" type="line"/>
      <point x="420" y="25"/>
      <point x="510" y="-22"/>
      <point x="616" y="-22" type="curve" smooth="yes"/>
      <point x="959" y="-22"/>
      <point x="1121" y="292"/>
      <point x="1121" y="544" type="curve" smooth="yes"/>
      <point x="1121" y="780"/>
      <point x="985" y="946"/>
      <point x="766" y="946" type="curve" smooth="yes"/>
      <point x="660" y="946"/>
      <point x="567" y="903"/>
      <point x="494" y="838" type="curve"/>
    </contour>
  </outline>
</glyph>
<glyph name="Aogonek" format="1">
  <advance width="1228"/>
  <unicode hex="0104"/>
  <outline>
    <contour>
      <point x="674" y="1209"/>
      <point x="633" y="1191"/>
      <point x="607" y="1144" type="curve" smooth="yes"/>
      <point x="27" y="102" type="line" smooth="yes"/>
      <point x="1" y="56"/>
      <point x="11" y="24"/>
      <point x="106" y="-2" type="curve" smooth="yes"/>
      <point x="193" y="-26"/>
      <point x="244" y="-17"/>
      <point x="268" y="27" type="curve" smooth="yes"/>
      <point x="373" y="220" type="line"/>
      <point x="811" y="220" type="line"/>
      <point x="847" y="18" type="line"/>
      <point x="700" y="-62"/>
      <point x="583" y="-163"/>
      <point x="583" y="-300" type="curve" smooth="yes"/>
      <point x="583" y="-408"/>
      <point x="666" y="-472"/>
      <point x="805" y="-472" type="curve" smooth="yes"/>
      <point x="884" y="-472"/>
      <point x="976" y="-457"/>
      <point x="1042" y="-436" type="curve" smooth="yes"/>
      <point x="1072" y="-427"/>
      <point x="1088" y="-400"/>
      <point x="1082" y="-350" type="curve" smooth="yes"/>
      <point x="1076" y="-302"/>
      <point x="1057" y="-280"/>
      <point x="1030" y="-285" type="curve" smooth="yes"/>
      <point x="990" y="-292"/>
      <point x="950" y="-298"/>
      <point x="911" y="-298" type="curve" smooth="yes"/>
      <point x="862" y="-298"/>
      <point x="833" y="-280"/>
      <point x="833" y="-235" type="curve" smooth="yes"/>
      <point x="833" y="-159"/>
      <point x="939" y="-67"/>
      <point x="1073" y="28" type="curve"/>
      <point x="1094" y="44"/>
      <point x="1099" y="64"/>
      <point x="1094" y="90" type="curve" smooth="yes"/>
      <point x="891" y="1144" type="line" smooth="yes"/>
      <point x="882" y="1190"/>
      <point x="850" y="1209"/>
      <point x="762" y="1209" type="curve" smooth="yes"/>
    </contour>
    <contour>
      <point x="775" y="455" type="line"/>
      <point x="492" y="455" type="line"/>
      <point x="708" y="865" type="line"/>
    </contour>
  </outline>
</glyph>
<glyph name="aogonek" format="1">
  <advance width="1228"/>
  <unicode hex="0105"/>
  <outline>
    <contour>
      <point x="291" y="946"/>
      <point x="129" y="632"/>
      <point x="129" y="380" type="curve" smooth="yes"/>
      <point x="129" y="144"/>
      <point x="265" y="-22"/>
      <point x="484" y="-22" type="curve" smooth="yes"/>
      <point x="615" y="-22"/>
      <point x="726" y="43"/>
      <point x="804" y="135" type="curve"/>
      <point x="785.285" y="24.4919" type="line"/>
      <point x="630.445" y="-56.9351"/>
      <point x="508" y="-159.032"/>
      <point x="508" y="-300" type="curve" smooth="yes"/>
      <point x="508" y="-408"/>
      <point x="591" y="-472"/>
      <point x="730" y="-472" type="curve" smooth="yes"/>
      <point x="809" y="-472"/>
      <point x="901" y="-457"/>
      <point x="967" y="-436" type="curve" smooth="yes"/>
      <point x="997" y="-427"/>
      <point x="1013" y="-400"/>
      <point x="1007" y="-350" type="curve" smooth="yes"/>
      <point x="1001" y="-302"/>
      <point x="982" y="-280"/>
      <point x="955" y="-285" type="curve" smooth="yes"/>
      <point x="915" y="-292"/>
      <point x="875" y="-298"/>
      <point x="836" y="-298" type="curve" smooth="yes"/>
      <point x="787" y="-298"/>
      <point x="758" y="-280"/>
      <point x="758" y="-235" type="curve" smooth="yes"/>
      <point x="758" y="-163"/>
      <point x="853" y="-77"/>
      <point x="976" y="11.9999" type="curve" smooth="yes"/>
      <point x="990" y="22"/>
      <point x="998" y="39"/>
      <point x="1002" y="63" type="curve" smooth="yes"/>
      <point x="1142" y="861" type="line" smooth="yes"/>
      <point x="1150" y="906"/>
      <point x="1135" y="924"/>
      <point x="1090" y="924" type="curve" smooth="yes"/>
      <point x="1006" y="924" type="line" smooth="yes"/>
      <point x="961" y="924"/>
      <point x="940" y="906"/>
      <point x="932" y="861" type="curve" smooth="yes"/>
      <point x="917" y="772" type="line"/>
      <point x="867" y="877"/>
      <point x="762" y="946"/>
      <point x="634" y="946" type="curve" smooth="yes"/>
    </contour>
    <contour>
      <point x="753" y="714"/>
      <point x="835" y="647"/>
      <point x="835" y="522" type="curve" smooth="yes"/>
      <point x="835" y="377"/>
      <point x="736" y="210"/>
      <point x="556" y="210" type="curve" smooth="yes"/>
      <point x="451" y="210"/>
      <point x="389" y="279"/>
      <point x="389" y="391" type="curve" smooth="yes"/>
      <point x="389" y="525"/>
      <point x="462" y="714"/>
      <point x="644" y="714" type="curve" smooth="yes"/>
    </contour>
  </outline>
</glyph>
<glyph name="dcaron" format="1">
  <advance width="1228"/>
  <unicode hex="010F"/>
  <outline>
    <contour>
      <point x="895" y="1312" type="line" smooth="yes"/>
      <point x="850" y="1312"/>
      <point x="829" y="1294"/>
      <point x="821" y="1249" type="curve" smooth="yes"/>
      <point x="748" y="838" type="line"/>
      <point x="699" y="916"/>
      <point x="627" y="946"/>
      <point x="539" y="946" type="curve" smooth="yes"/>
      <point x="267" y="946"/>
      <point x="77" y="680"/>
      <point x="77" y="357" type="curve" smooth="yes"/>
      <point x="77" y="138"/>
      <point x="176" y="-22"/>
      <point x="389" y="-22" type="curve" smooth="yes"/>
      <point x="499" y="-22"/>
      <point x="590" y="33"/>
      <point x="663" y="127" type="curve"/>
      <point x="652" y="63" type="line" smooth="yes"/>
      <point x="644" y="18"/>
      <point x="659" y="0"/>
      <point x="704" y="0" type="curve" smooth="yes"/>
      <point x="788" y="0" type="line" smooth="yes"/>
      <point x="833" y="0"/>
      <point x="854" y="18"/>
      <point x="862" y="63" type="curve" smooth="yes"/>
      <point x="1071" y="1249" type="line" smooth="yes"/>
      <point x="1079" y="1294"/>
      <point x="1064" y="1312"/>
      <point x="1019" y="1312" type="curve" smooth="yes"/>
    </contour>
    <contour>
      <point x="633" y="714"/>
      <point x="696" y="651"/>
      <point x="696" y="533" type="curve" smooth="yes"/>
      <point x="696" y="450"/>
      <point x="669" y="367"/>
      <point x="633" y="313" type="curve" smooth="yes"/>
      <point x="587" y="245"/>
      <point x="527" y="210"/>
      <point x="460" y="210" type="curve" smooth="yes"/>
      <point x="381" y="210"/>
      <point x="338" y="273"/>
      <point x="338" y="378" type="curve" smooth="yes"/>
      <point x="338" y="474"/>
      <point x="368" y="575"/>
      <point x="412" y="635" type="curve" smooth="yes"/>
      <point x="450" y="687"/>
      <point x="498" y="714"/>
      <point x="548" y="714" type="curve" smooth="yes"/>
    </contour>
    <component base="quoteright" xOffset="743" yOffset="311" xScale="0.83" yScale="0.83"/>
  </outline>
</glyph>
<glyph name="dcroat" format="1">
  <advance width="1228"/>
  <unicode hex="0111"/>
  <outline>
    <contour>
      <point x="1015" y="1312" type="line" smooth="yes"/>
      <point x="970" y="1312"/>
      <point x="949" y="1294"/>
      <point x="941" y="1249" type="curve" smooth="yes"/>
      <point x="830" y="616" type="line"/>
      <point x="886" y="666" type="line"/>
      <point x="840" y="773"/>
      <point x="731" y="846"/>
      <point x="592" y="846" type="curve" smooth="yes"/>
      <point x="345" y="846"/>
      <point x="173" y="650"/>
      <point x="146" y="412" type="curve" smooth="yes"/>
      <point x="119" y="172"/>
      <point x="247" y="-22"/>
      <point x="494" y="-22" type="curve" smooth="yes"/>
      <point x="639" y="-22"/>
      <point x="761" y="63"/>
      <point x="833" y="197" type="curve"/>
      <point x="807" y="259" type="line"/>
      <point x="772" y="63" type="line" smooth="yes"/>
      <point x="764" y="18"/>
      <point x="779" y="0"/>
      <point x="824" y="0" type="curve" smooth="yes"/>
      <point x="908" y="0" type="line" smooth="yes"/>
      <point x="953" y="0"/>
      <point x="974" y="18"/>
      <point x="982" y="63" type="curve" smooth="yes"/>
      <point x="1191" y="1249" type="line" smooth="yes"/>
      <point x="1199" y="1294"/>
      <point x="1184" y="1312"/>
      <point x="1139" y="1312" type="curve" smooth="yes"/>
    </contour>
    <contour>
      <point x="739" y="614"/>
      <point x="821" y="545"/>
      <point x="801" y="412" type="curve" smooth="yes"/>
      <point x="781" y="281"/>
      <point x="672" y="210"/>
      <point x="557" y="210" type="curve" smooth="yes"/>
      <point x="444" y="210"/>
      <point x="388" y="288"/>
      <point x="408" y="412" type="curve" smooth="yes"/>
      <point x="428" y="536"/>
      <point x="511" y="614"/>
      <point x="624" y="614" type="curve" smooth="yes"/>
    </contour>
    <contour>
      <point x="720" y="1155" type="line" smooth="yes"/>
      <point x="675" y="1155"/>
      <point x="653" y="1137"/>
      <point x="638" y="1052" type="curve" smooth="yes"/>
      <point x="624" y="967"/>
      <point x="639" y="950"/>
      <point x="684" y="950" type="curve" smooth="yes"/>
      <point x="1246" y="950" type="line" smooth="yes"/>
      <point x="1291" y="950"/>
      <point x="1312" y="967"/>
      <point x="1326" y="1052" type="curve" smooth="yes"/>
      <point x="1341" y="1137"/>
      <point x="1327" y="1155"/>
      <point x="1282" y="1155" type="curve" smooth="yes"/>
    </contour>
  </outline>
</glyph>
<glyph name="eogonek" format="1">
  <advance width="1228"/>
  <unicode hex="0119"/>
  <outline>
    <contour>
      <point x="335" y="946"/>
      <point x="140" y="670"/>
      <point x="140" y="379" type="curve" smooth="yes"/>
      <point x="140" y="149"/>
      <point x="283" y="-22"/>
      <point x="544" y="-22" type="curve" smooth="yes"/>
      <point x="589" y="-22"/>
      <point x="635" y="-19"/>
      <point x="681" y="-14" type="curve"/>
      <point x="561" y="-89"/>
      <point x="473" y="-180"/>
      <point x="473" y="-300" type="curve" smooth="yes"/>
      <point x="473" y="-408"/>
      <point x="556" y="-472"/>
      <point x="695" y="-472" type="curve" smooth="yes"/>
      <point x="774" y="-472"/>
      <point x="866" y="-457"/>
      <point x="932" y="-436" type="curve" smooth="yes"/>
      <point x="962" y="-427"/>
      <point x="978" y="-400"/>
      <point x="972" y="-350" type="curve" smooth="yes"/>
      <point x="966" y="-302"/>
      <point x="947" y="-280"/>
      <point x="920" y="-285" type="curve" smooth="yes"/>
      <point x="880" y="-292"/>
      <point x="840" y="-298"/>
      <point x="801" y="-298" type="curve" smooth="yes"/>
      <point x="752" y="-298"/>
      <point x="723" y="-280"/>
      <point x="723" y="-235" type="curve" smooth="yes"/>
      <point x="723" y="-159"/>
      <point x="828" y="-63"/>
      <point x="1015" y="66" type="curve"/>
      <point x="1039" y="85"/>
      <point x="1045" y="116"/>
      <point x="1033" y="176" type="curve" smooth="yes"/>
      <point x="1017" y="257"/>
      <point x="995" y="273"/>
      <point x="949" y="260" type="curve" smooth="yes"/>
      <point x="810" y="220"/>
      <point x="692" y="205"/>
      <point x="584" y="205" type="curve" smooth="yes"/>
      <point x="483" y="205"/>
      <point x="418" y="247"/>
      <point x="397" y="329" type="curve"/>
      <point x="852" y="374" type="line" smooth="yes"/>
      <point x="1031" y="392"/>
      <point x="1100" y="495"/>
      <point x="1100" y="634" type="curve" smooth="yes"/>
      <point x="1100" y="817"/>
      <point x="949" y="946"/>
      <point x="714" y="946" type="curve" smooth="yes"/>
    </contour>
    <contour>
      <point x="796" y="719"/>
      <point x="842" y="670"/>
      <point x="842" y="624" type="curve" smooth="yes"/>
      <point x="842" y="590"/>
      <point x="824" y="557"/>
      <point x="764" y="551" type="curve" smooth="yes"/>
      <point x="410" y="515" type="line"/>
      <point x="453" y="653"/>
      <point x="556" y="719"/>
      <point x="688" y="719" type="curve" smooth="yes"/>
    </contour>
  </outline>
</glyph>
<glyph name="Hbar" format="1">
  <advance width="1228"/>
  <unicode hex="0126"/>
  <outline>
    <contour>
      <point x="190" y="1008" type="line" smooth="yes"/>
      <point x="145" y="1008"/>
      <point x="125" y="994"/>
      <point x="111" y="915" type="curve" smooth="yes"/>
      <point x="97" y="837"/>
      <point x="113" y="823"/>
      <point x="158" y="823" type="curve" smooth="yes"/>
      <point x="1220" y="823" type="line" smooth="yes"/>
      <point x="1265" y="823"/>
      <point x="1285" y="837"/>
      <point x="1299" y="915" type="curve" smooth="yes"/>
      <point x="1313" y="994"/>
      <point x="1297" y="1008"/>
      <point x="1252" y="1008" type="curve" smooth="yes"/>
    </contour>
    <component base="H"/>
  </outline>
</glyph>
<glyph name="hbar" format="1">
  <advance width="1228"/>
  <unicode hex="0127"/>
  <outline>
    <contour>
      <point x="394" y="1312" type="line" smooth="yes"/>
      <point x="349" y="1312"/>
      <point x="328" y="1294"/>
      <point x="320" y="1249" type="curve" smooth="yes"/>
      <point x="111" y="63" type="line" smooth="yes"/>
      <point x="103" y="18"/>
      <point x="118" y="0"/>
      <point x="163" y="0" type="curve" smooth="yes"/>
      <point x="287" y="0" type="line" smooth="yes"/>
      <point x="332" y="0"/>
      <point x="353" y="18"/>
      <point x="361" y="63" type="curve" smooth="yes"/>
      <point x="399" y="278" type="line" smooth="yes"/>
      <point x="432" y="466"/>
      <point x="597" y="629"/>
      <point x="726" y="629" type="curve" smooth="yes"/>
      <point x="806" y="629"/>
      <point x="840" y="588"/>
      <point x="840" y="520" type="curve" smooth="yes"/>
      <point x="840" y="505"/>
      <point x="838" y="489"/>
      <point x="835" y="471" type="curve" smooth="yes"/>
      <point x="763" y="63" type="line" smooth="yes"/>
      <point x="755" y="18"/>
      <point x="770" y="0"/>
      <point x="815" y="0" type="curve" smooth="yes"/>
      <point x="939" y="0" type="line" smooth="yes"/>
      <point x="984" y="0"/>
      <point x="1005" y="18"/>
      <point x="1013" y="63" type="curve" smooth="yes"/>
      <point x="1091" y="510" type="line" smooth="yes"/>
      <point x="1095" y="534"/>
      <point x="1097" y="557"/>
      <point x="1097" y="580" type="curve" smooth="yes"/>
      <point x="1097" y="745"/>
      <point x="987" y="866"/>
      <point x="812" y="866" type="curve" smooth="yes"/>
      <point x="686" y="866"/>
      <point x="570" y="803"/>
      <point x="474" y="703" type="curve"/>
      <point x="570" y="1249" type="line" smooth="yes"/>
      <point x="578" y="1294"/>
      <point x="563" y="1312"/>
      <point x="518" y="1312" type="curve" smooth="yes"/>
    </contour>
    <contour>
      <point x="226" y="1155" type="line" smooth="yes"/>
      <point x="181" y="1155"/>
      <point x="160" y="1137"/>
      <point x="145" y="1052" type="curve" smooth="yes"/>
      <point x="130" y="967"/>
      <point x="145" y="950"/>
      <point x="190" y="950" type="curve" smooth="yes"/>
      <point x="752" y="950" type="line" smooth="yes"/>
      <point x="797" y="950"/>
      <point x="818" y="967"/>
      <point x="833" y="1052" type="curve" smooth="yes"/>
      <point x="848" y="1137"/>
      <point x="833" y="1155"/>
      <point x="788" y="1155" type="curve" smooth="yes"/>
    </contour>
  </outline>
</glyph>
<glyph name="ij" format="1">
  <advance width="1228"/>
  <unicode hex="0133"/>
  <outline>
    <contour>
      <point x="939" y="924" type="line" smooth="yes"/>
      <point x="894" y="924"/>
      <point x="873" y="906"/>
      <point x="865" y="861" type="curve" smooth="yes"/>
      <point x="711" y="-17" type="line" smooth="yes"/>
      <point x="692" y="-128"/>
      <point x="636" y="-173"/>
      <point x="554" y="-173" type="curve" smooth="yes"/>
      <point x="505" y="-173"/>
      <point x="435" y="-155"/>
      <point x="376" y="-130" type="curve" smooth="yes"/>
      <point x="337" y="-113"/>
      <point x="303" y="-128"/>
      <point x="270" y="-209" type="curve" smooth="yes"/>
      <point x="237" y="-290"/>
      <point x="250" y="-325"/>
      <point x="290" y="-346" type="curve" smooth="yes"/>
      <point x="376" y="-391"/>
      <point x="478" y="-410"/>
      <point x="564" y="-410" type="curve" smooth="yes"/>
      <point x="796" y="-410"/>
      <point x="914" y="-279"/>
      <point x="958" y="-30" type="curve" smooth="yes"/>
      <point x="1115" y="861" type="line" smooth="yes"/>
      <point x="1123" y="906"/>
      <point x="1108" y="924"/>
      <point x="1063" y="924" type="curve" smooth="yes"/>
    </contour>
    <contour>
      <point x="349" y="924" type="line" smooth="yes"/>
      <point x="304" y="924"/>
      <point x="283" y="906"/>
      <point x="275" y="861" type="curve" smooth="yes"/>
      <point x="135" y="63" type="line" smooth="yes"/>
      <point x="127" y="18"/>
      <point x="142" y="0"/>
      <point x="187" y="0" type="curve" smooth="yes"/>
      <point x="311" y="0" type="line" smooth="yes"/>
      <point x="356" y="0"/>
      <point x="377" y="18"/>
      <point x="385" y="63" type="curve" smooth="yes"/>
      <point x="525" y="861" type="line" smooth="yes"/>
      <point x="533" y="906"/>
      <point x="518" y="924"/>
      <point x="473" y="924" type="curve" smooth="yes"/>
    </contour>
    <contour>
      <point x="384" y="1383"/>
      <point x="354" y="1365"/>
      <point x="346" y="1320" type="curve" smooth="yes"/>
      <point x="317" y="1156" type="line" smooth="yes"/>
      <point x="309" y="1111"/>
      <point x="338" y="1093"/>
      <point x="433" y="1093" type="curve" smooth="yes"/>
      <point x="528" y="1093"/>
      <point x="559" y="1111"/>
      <point x="567" y="1156" type="curve" smooth="yes"/>
      <point x="596" y="1320" type="line" smooth="yes"/>
      <point x="604" y="1365"/>
      <point x="574" y="1383"/>
      <point x="479" y="1383" type="curve" smooth="yes"/>
    </contour>
    <contour>
      <point x="974" y="1383"/>
      <point x="944" y="1365"/>
      <point x="936" y="1320" type="curve" smooth="yes"/>
      <point x="907" y="1156" type="line" smooth="yes"/>
      <point x="899" y="1111"/>
      <point x="928" y="1093"/>
      <point x="1023" y="1093" type="curve" smooth="yes"/>
      <point x="1118" y="1093"/>
      <point x="1149" y="1111"/>
      <point x="1157" y="1156" type="curve" smooth="yes"/>
      <point x="1186" y="1320" type="line" smooth="yes"/>
      <point x="1194" y="1365"/>
      <point x="1164" y="1383"/>
      <point x="1069" y="1383" type="curve" smooth="yes"/>
    </contour>
  </outline>
</glyph>
<glyph name="Eng" format="1">
  <advance width="1228"/>
  <unicode hex="014A"/>
  <outline>
    <contour>
      <point x="826" y="331" type="line"/>
      <point x="760" y="-44" type="line" smooth="yes"/>
      <point x="743" y="-140"/>
      <point x="690" y="-178"/>
      <point x="607" y="-178" type="curve" smooth="yes"/>
      <point x="570" y="-178"/>
      <point x="516" y="-167"/>
      <point x="471" y="-152" type="curve" smooth="yes"/>
      <point x="432" y="-139"/>
      <point x="401" y="-158"/>
      <point x="370" y="-240" type="curve" smooth="yes"/>
      <point x="338" y="-324"/>
      <point x="349" y="-358"/>
      <point x="390" y="-375" type="curve" smooth="yes"/>
      <point x="454" y="-401"/>
      <point x="527" y="-415"/>
      <point x="592" y="-415" type="curve" smooth="yes"/>
      <point x="831" y="-415"/>
      <point x="965" y="-297"/>
      <point x="1007" y="-60" type="curve" smooth="yes"/>
      <point x="1076" y="331" type="line"/>
    </contour>
    <component base="N"/>
  </outline>
</glyph>
<glyph name="eng" format="1">
  <advance width="1228"/>
  <unicode hex="014B"/>
  <outline>
    <contour>
      <point x="810" y="331" type="line"/>
      <point x="744" y="-44" type="line" smooth="yes"/>
      <point x="727" y="-140"/>
      <point x="674" y="-178"/>
      <point x="591" y="-178" type="curve" smooth="yes"/>
      <point x="554" y="-178"/>
      <point x="500" y="-167"/>
      <point x="455" y="-152" type="curve" smooth="yes"/>
      <point x="416" y="-139"/>
      <point x="385" y="-158"/>
      <point x="354" y="-240" type="curve" smooth="yes"/>
      <point x="322" y="-324"/>
      <point x="333" y="-358"/>
      <point x="374" y="-375" type="curve" smooth="yes"/>
      <point x="438" y="-401"/>
      <point x="511" y="-415"/>
      <point x="576" y="-415" type="curve" smooth="yes"/>
      <point x="815" y="-415"/>
      <point x="949" y="-297"/>
      <point x="991" y="-60" type="curve" smooth="yes"/>
      <point x="1060" y="331" type="line"/>
    </contour>
    <component base="n"/>
  </outline>
</glyph>
<glyph name="Tbar" format="1">
  <advance width="1228"/>
  <unicode hex="0166"/>
  <outline>
    <contour>
      <point x="315" y="575" type="line" smooth="yes"/>
      <point x="270" y="575"/>
      <point x="249" y="557"/>
      <point x="232" y="462" type="curve" smooth="yes"/>
      <point x="215" y="367"/>
      <point x="230" y="350"/>
      <point x="275" y="350" type="curve" smooth="yes"/>
      <point x="937" y="350" type="line" smooth="yes"/>
      <point x="982" y="350"/>
      <point x="1003" y="367"/>
      <point x="1020" y="462" type="curve" smooth="yes"/>
      <point x="1037" y="557"/>
      <point x="1022" y="575"/>
      <point x="977" y="575" type="curve" smooth="yes"/>
    </contour>
    <component base="T"/>
  </outline>
</glyph>
<glyph name="uogonek" format="1">
  <advance width="1228"/>
  <unicode hex="0173"/>
  <outline>
    <contour>
      <point x="963" y="924" type="line" smooth="yes"/>
      <point x="918" y="924"/>
      <point x="897" y="906"/>
      <point x="889" y="861" type="curve" smooth="yes"/>
      <point x="837" y="566" type="line" smooth="yes"/>
      <point x="804" y="378"/>
      <point x="639" y="215"/>
      <point x="510" y="215" type="curve" smooth="yes"/>
      <point x="430" y="215"/>
      <point x="396" y="256"/>
      <point x="396" y="324" type="curve" smooth="yes"/>
      <point x="396" y="339"/>
      <point x="398" y="355"/>
      <point x="401" y="373" type="curve" smooth="yes"/>
      <point x="487" y="861" type="line" smooth="yes"/>
      <point x="495" y="906"/>
      <point x="480" y="924"/>
      <point x="435" y="924" type="curve" smooth="yes"/>
      <point x="311" y="924" type="line" smooth="yes"/>
      <point x="266" y="924"/>
      <point x="245" y="906"/>
      <point x="237" y="861" type="curve" smooth="yes"/>
      <point x="145" y="334" type="line" smooth="yes"/>
      <point x="141" y="310"/>
      <point x="139" y="287"/>
      <point x="139" y="264" type="curve" smooth="yes"/>
      <point x="139" y="99"/>
      <point x="249" y="-22"/>
      <point x="424" y="-22" type="curve" smooth="yes"/>
      <point x="573" y="-22"/>
      <point x="707" y="65"/>
      <point x="812" y="198" type="curve"/>
      <point x="782.485" y="24.5969" type="line"/>
      <point x="627.55" y="-56.8473"/>
      <point x="505" y="-158.971"/>
      <point x="505" y="-300" type="curve" smooth="yes"/>
      <point x="505" y="-408"/>
      <point x="588" y="-472"/>
      <point x="727" y="-472" type="curve" smooth="yes"/>
      <point x="806" y="-472"/>
      <point x="898" y="-457"/>
      <point x="964" y="-436" type="curve" smooth="yes"/>
      <point x="994" y="-427"/>
      <point x="1010" y="-400"/>
      <point x="1004" y="-350" type="curve" smooth="yes"/>
      <point x="998" y="-302"/>
      <point x="979" y="-280"/>
      <point x="952" y="-285" type="curve" smooth="yes"/>
      <point x="912" y="-292"/>
      <point x="872" y="-298"/>
      <point x="833" y="-298" type="curve" smooth="yes"/>
      <point x="784" y="-298"/>
      <point x="755" y="-280"/>
      <point x="755" y="-235" type="curve" smooth="yes"/>
      <point x="755" y="-163"/>
      <point x="850" y="-77"/>
      <point x="973" y="11.9999" type="curve" smooth="yes"/>
      <point x="987" y="22"/>
      <point x="995" y="39"/>
      <point x="999" y="63" type="curve" smooth="yes"/>
      <point x="1139" y="861" type="line" smooth="yes"/>
      <point x="1147" y="906"/>
      <point x="1132" y="924"/>
      <point x="1087" y="924" type="curve" smooth="yes"/>
    </contour>
  </outline>
</glyph>
<glyph name="dotlessj" format="1">
  <advance width="1228"/>
  <unicode hex="0237"/>
  <outline>
    <contour>
      <point x="382" y="924" type="line" smooth="yes"/>
      <point x="337" y="924"/>
      <point x="314" y="904"/>
      <point x="299" y="811" type="curve" smooth="yes"/>
      <point x="284" y="718"/>
      <point x="297" y="699"/>
      <point x="342" y="699" type="curve" smooth="yes"/>
      <point x="725" y="699" type="line"/>
      <point x="599" y="-22" type="line" smooth="yes"/>
      <point x="580" y="-130"/>
      <point x="526" y="-178"/>
      <point x="440" y="-178" type="curve" smooth="yes"/>
      <point x="372" y="-178"/>
      <point x="281" y="-149"/>
      <point x="203" y="-110" type="curve" smooth="yes"/>
      <point x="165" y="-91"/>
      <point x="129" y="-98"/>
      <point x="87" y="-183" type="curve" smooth="yes"/>
      <point x="48" y="-263"/>
      <point x="58" y="-298"/>
      <point x="99" y="-320" type="curve" smooth="yes"/>
      <point x="209" y="-379"/>
      <point x="327" y="-415"/>
      <point x="442" y="-415" type="curve" smooth="yes"/>
      <point x="674" y="-415"/>
      <point x="800" y="-294"/>
      <point x="844" y="-45" type="curve" smooth="yes"/>
      <point x="1004" y="861" type="line" smooth="yes"/>
      <point x="1012" y="906"/>
      <point x="997" y="924"/>
      <point x="952" y="924" type="curve" smooth="yes"/>
    </contour>
  </outline>
</glyph>
<glyph name="circumflex" format="1">
  <advance width="1228"/>
  <unicode hex="02C6"/>
  <outline>
    <contour>
      <point x="760" y="1168" type="line"/>
      <point x="1014" y="1029" type="line" smooth="yes"/>
      <point x="1045" y="1012"/>
      <point x="1068" y="1023"/>
      <point x="1091" y="1059" type="curve" smooth="yes"/>
      <point x="1110" y="1089"/>
      <point x="1112" y="1121"/>
      <point x="1084" y="1147" type="curve" smooth="yes"/>
      <point x="833" y="1388" type="line" smooth="yes"/>
      <point x="820" y="1400"/>
      <point x="802" y="1406"/>
      <point x="781" y="1406" type="curve" smooth="yes"/>
      <point x="760" y="1406"/>
      <point x="740" y="1400"/>
      <point x="723" y="1388" type="curve" smooth="yes"/>
      <point x="396" y="1152" type="line" smooth="yes"/>
      <point x="371" y="1134"/>
      <point x="367" y="1101"/>
      <point x="386" y="1066" type="curve" smooth="yes"/>
      <point x="406" y="1030"/>
      <point x="429" y="1017"/>
      <point x="456" y="1029" type="curve" smooth="yes"/>
    </contour>
  </outline>
</glyph>
<glyph name="caron" format="1">
  <advance width="1228"/>
  <unicode hex="02C7"/>
  <outline>
    <contour>
      <point x="752" y="1245" type="line"/>
      <point x="498" y="1384" type="line" smooth="yes"/>
      <point x="467" y="1401"/>
      <point x="444" y="1390"/>
      <point x="421" y="1354" type="curve" smooth="yes"/>
      <point x="402" y="1324"/>
      <point x="400" y="1292"/>
      <point x="428" y="1266" type="curve" smooth="yes"/>
      <point x="679" y="1025" type="line" smooth="yes"/>
      <point x="692" y="1013"/>
      <point x="710" y="1007"/>
      <point x="731" y="1007" type="curve" smooth="yes"/>
      <point x="752" y="1007"/>
      <point x="772" y="1013"/>
      <point x="789" y="1025" type="curve" smooth="yes"/>
      <point x="1116" y="1261" type="line" smooth="yes"/>
      <point x="1141" y="1279"/>
      <point x="1145" y="1312"/>
      <point x="1126" y="1347" type="curve" smooth="yes"/>
      <point x="1106" y="1383"/>
      <point x="1083" y="1396"/>
      <point x="1056" y="1384" type="curve" smooth="yes"/>
    </contour>
  </outline>
</glyph>
<glyph name="tilde" format="1">
  <advance width="1228"/>
  <unicode hex="02DC"/>
  <outline>
    <contour>
      <point x="960" y="1057"/>
      <point x="1030" y="1079"/>
      <point x="1105" y="1142" type="curve" smooth="yes"/>
      <point x="1130" y="1163"/>
      <point x="1132" y="1205"/>
      <point x="1113" y="1245" type="curve" smooth="yes"/>
      <point x="1092" y="1289"/>
      <point x="1061" y="1312"/>
      <point x="1031" y="1295" type="curve" smooth="yes"/>
      <point x="990" y="1271"/>
      <point x="945" y="1262"/>
      <point x="907" y="1262" type="curve" smooth="yes"/>
      <point x="808" y="1262"/>
      <point x="719" y="1325"/>
      <point x="609" y="1325" type="curve" smooth="yes"/>
      <point x="549" y="1325"/>
      <point x="479" y="1303"/>
      <point x="404" y="1240" type="curve" smooth="yes"/>
      <point x="379" y="1219"/>
      <point x="377" y="1177"/>
      <point x="396" y="1137" type="curve" smooth="yes"/>
      <point x="417" y="1093"/>
      <point x="448" y="1070"/>
      <point x="478" y="1087" type="curve" smooth="yes"/>
      <point x="519" y="1111"/>
      <point x="564" y="1120"/>
      <point x="602" y="1120" type="curve" smooth="yes"/>
      <point x="700" y="1120"/>
      <point x="789" y="1057"/>
      <point x="900" y="1057" type="curve" smooth="yes"/>
    </contour>
  </outline>
</glyph>
<glyph name="quoteleft" format="1">
  <advance width="1228"/>
  <unicode hex="2018"/>
  <outline>
    <contour>
      <point x="813" y="1307"/>
      <point x="771" y="1287"/>
      <point x="742" y="1241" type="curve" smooth="yes"/>
      <point x="451" y="772" type="line" smooth="yes"/>
      <point x="429" y="737"/>
      <point x="440" y="709"/>
      <point x="473" y="709" type="curve" smooth="yes"/>
      <point x="711" y="709" type="line" smooth="yes"/>
      <point x="739" y="709"/>
      <point x="760" y="723"/>
      <point x="770" y="749" type="curve" smooth="yes"/>
      <point x="944" y="1221" type="line" smooth="yes"/>
      <point x="967" y="1283"/>
      <point x="945" y="1307"/>
      <point x="879" y="1307" type="curve" smooth="yes"/>
    </contour>
  </outline>
</glyph>
<glyph name="quoteright" format="1">
  <advance width="1228"/>
  <unicode hex="2019"/>
  <outline>
    <contour>
      <point x="959" y="1146" type="line" smooth="yes"/>
      <point x="981" y="1181"/>
      <point x="970" y="1209"/>
      <point x="937" y="1209" type="curve" smooth="yes"/>
      <point x="699" y="1209" type="line" smooth="yes"/>
      <point x="671" y="1209"/>
      <point x="650" y="1195"/>
      <point x="640" y="1169" type="curve" smooth="yes"/>
      <point x="466" y="697" type="line" smooth="yes"/>
      <point x="443" y="635"/>
      <point x="465" y="611"/>
      <point x="531" y="611" type="curve" smooth="yes"/>
      <point x="597" y="611"/>
      <point x="639" y="631"/>
      <point x="668" y="677" type="curve" smooth="yes"/>
    </contour>
  </outline>
</glyph>
<glyph name="quotesinglbase" format="1">
  <advance width="1228"/>
  <unicode hex="201A"/>
  <outline>
    <contour>
      <point x="800" y="241" type="line" smooth="yes"/>
      <point x="822" y="276"/>
      <point x="811" y="304"/>
      <point x="778" y="304" type="curve" smooth="yes"/>
      <point x="540" y="304" type="line" smooth="yes"/>
      <point x="512" y="304"/>
      <point x="491" y="290"/>
      <point x="481" y="264" type="curve" smooth="yes"/>
      <point x="307" y="-208" type="line" smooth="yes"/>
      <point x="284" y="-270"/>
      <point x="306" y="-294"/>
      <point x="372" y="-294" type="curve" smooth="yes"/>
      <point x="438" y="-294"/>
      <point x="480" y="-274"/>
      <point x="509" y="-228" type="curve" smooth="yes"/>
    </contour>
  </outline>
</glyph>
<glyph name="quotedblleft" format="1">
  <advance width="1228"/>
  <unicode hex="201C"/>
  <outline>
    <contour>
      <point x="680" y="712" type="line" smooth="yes"/>
      <point x="658" y="677"/>
      <point x="669" y="649"/>
      <point x="702" y="649" type="curve" smooth="yes"/>
      <point x="940" y="649" type="line" smooth="yes"/>
      <point x="968" y="649"/>
      <point x="989" y="663"/>
      <point x="999" y="689" type="curve" smooth="yes"/>
      <point x="1173" y="1161" type="line" smooth="yes"/>
      <point x="1196" y="1223"/>
      <point x="1174" y="1247"/>
      <point x="1108" y="1247" type="curve" smooth="yes"/>
      <point x="1042" y="1247"/>
      <point x="1000" y="1227"/>
      <point x="971" y="1181" type="curve" smooth="yes"/>
    </contour>
    <contour>
      <point x="200" y="712" type="line" smooth="yes"/>
      <point x="178" y="677"/>
      <point x="189" y="649"/>
      <point x="222" y="649" type="curve" smooth="yes"/>
      <point x="460" y="649" type="line" smooth="yes"/>
      <point x="488" y="649"/>
      <point x="509" y="663"/>
      <point x="519" y="689" type="curve" smooth="yes"/>
      <point x="693" y="1161" type="line" smooth="yes"/>
      <point x="716" y="1223"/>
      <point x="694" y="1247"/>
      <point x="628" y="1247" type="curve" smooth="yes"/>
      <point x="562" y="1247"/>
      <point x="520" y="1227"/>
      <point x="491" y="1181" type="curve" smooth="yes"/>
    </contour>
  </outline>
</glyph>
<glyph name="quotedblright" format="1">
  <advance width="1228"/>
  <unicode hex="201D"/>
  <outline>
    <contour>
      <point x="719" y="1146" type="line" smooth="yes"/>
      <point x="741" y="1181"/>
      <point x="730" y="1209"/>
      <point x="697" y="1209" type="curve" smooth="yes"/>
      <point x="459" y="1209" type="line" smooth="yes"/>
      <point x="431" y="1209"/>
      <point x="410" y="1195"/>
      <point x="400" y="1169" type="curve" smooth="yes"/>
      <point x="226" y="697" type="line" smooth="yes"/>
      <point x="203" y="635"/>
      <point x="225" y="611"/>
      <point x="291" y="611" type="curve" smooth="yes"/>
      <point x="357" y="611"/>
      <point x="399" y="631"/>
      <point x="428" y="677" type="curve" smooth="yes"/>
    </contour>
    <contour>
      <point x="1199" y="1146" type="line" smooth="yes"/>
      <point x="1221" y="1181"/>
      <point x="1210" y="1209"/>
      <point x="1177" y="1209" type="curve" smooth="yes"/>
      <point x="939" y="1209" type="line" smooth="yes"/>
      <point x="911" y="1209"/>
      <point x="890" y="1195"/>
      <point x="880" y="1169" type="curve" smooth="yes"/>
      <point x="706" y="697" type="line" smooth="yes"/>
      <point x="683" y="635"/>
      <point x="705" y="611"/>
      <point x="771" y="611" type="curve" smooth="yes"/>
      <point x="837" y="611"/>
      <point x="879" y="631"/>
      <point x="908" y="677" type="curve" smooth="yes"/>
    </contour>
  </outline>
</glyph>
<glyph name="quotedblbase" format="1">
  <advance width="1228"/>
  <unicode hex="201E"/>
  <outline>
    <contour>
      <point x="560" y="241" type="line" smooth="yes"/>
      <point x="582" y="276"/>
      <point x="571" y="304"/>
      <point x="538" y="304" type="curve" smooth="yes"/>
      <point x="300" y="304" type="line" smooth="yes"/>
      <point x="272" y="304"/>
      <point x="251" y="290"/>
      <point x="241" y="264" type="curve" smooth="yes"/>
      <point x="67" y="-208" type="line" smooth="yes"/>
      <point x="44" y="-270"/>
      <point x="66" y="-294"/>
      <point x="132" y="-294" type="curve" smooth="yes"/>
      <point x="198" y="-294"/>
      <point x="240" y="-274"/>
      <point x="269" y="-228" type="curve" smooth="yes"/>
    </contour>
    <contour>
      <point x="1040" y="241" type="line" smooth="yes"/>
      <point x="1062" y="276"/>
      <point x="1051" y="304"/>
      <point x="1018" y="304" type="curve" smooth="yes"/>
      <point x="780" y="304" type="line" smooth="yes"/>
      <point x="752" y="304"/>
      <point x="731" y="290"/>
      <point x="721" y="264" type="curve" smooth="yes"/>
      <point x="547" y="-208" type="line" smooth="yes"/>
      <point x="524" y="-270"/>
      <point x="546" y="-294"/>
      <point x="612" y="-294" type="curve" smooth="yes"/>
      <point x="678" y="-294"/>
      <point x="720" y="-274"/>
      <point x="749" y="-228" type="curve" smooth="yes"/>
    </contour>
  </outline>
</glyph>
<glyph name="fraction" format="1">
  <advance width="1228"/>
  <unicode hex="2044"/>
  <outline>
    <contour>
      <point x="91" y="309" type="line" smooth="yes"/>
      <point x="60" y="293"/>
      <point x="57" y="267"/>
      <point x="79" y="220" type="curve" smooth="yes"/>
      <point x="100" y="175"/>
      <point x="121" y="166"/>
      <point x="148" y="180" type="curve" smooth="yes"/>
      <point x="1177" y="721" type="line" smooth="yes"/>
      <point x="1208" y="737"/>
      <point x="1211" y="763"/>
      <point x="1189" y="810" type="curve" smooth="yes"/>
      <point x="1168" y="855"/>
      <point x="1147" y="864"/>
      <point x="1120" y="850" type="curve" smooth="yes"/>
    </contour>
  </outline>
</glyph>
<glyph name="won" format="1">
  <advance width="1228"/>
  <unicode hex="20A9"/>
  <outline>
    <contour>
      <point x="108" y="884" type="line" smooth="yes"/>
      <point x="63" y="884"/>
      <point x="43" y="868"/>
      <point x="27" y="781" type="curve" smooth="yes"/>
      <point x="12" y="695"/>
      <point x="27" y="679"/>
      <point x="72" y="679" type="curve" smooth="yes"/>
      <point x="1254" y="679" type="line" smooth="yes"/>
      <point x="1299" y="679"/>
      <point x="1320" y="695"/>
      <point x="1335" y="781" type="curve" smooth="yes"/>
      <point x="1351" y="868"/>
      <point x="1335" y="884"/>
      <point x="1290" y="884" type="curve" smooth="yes"/>
    </contour>
    <component base="W"/>
  </outline>
</glyph>
<glyph name="euro" format="1">
  <advance width="1228"/>
  <unicode hex="20AC"/>
  <outline>
    <contour>
      <point x="510" y="1209"/>
      <point x="244" y="929"/>
      <point x="244" y="485" type="curve" smooth="yes"/>
      <point x="244" y="167"/>
      <point x="421" y="-22"/>
      <point x="700" y="-22" type="curve" smooth="yes"/>
      <point x="831" y="-22"/>
      <point x="964" y="16"/>
      <point x="1062" y="65" type="curve" smooth="yes"/>
      <point x="1108" y="88"/>
      <point x="1122" y="128"/>
      <point x="1095" y="209" type="curve" smooth="yes"/>
      <point x="1069" y="287"/>
      <point x="1036" y="305"/>
      <point x="995" y="285" type="curve" smooth="yes"/>
      <point x="902" y="240"/>
      <point x="808" y="215"/>
      <point x="711" y="215" type="curve" smooth="yes"/>
      <point x="571" y="215"/>
      <point x="505" y="308"/>
      <point x="505" y="485" type="curve" smooth="yes"/>
      <point x="505" y="793"/>
      <point x="650" y="972"/>
      <point x="850" y="972" type="curve" smooth="yes"/>
      <point x="948" y="972"/>
      <point x="1032" y="946"/>
      <point x="1114" y="902" type="curve" smooth="yes"/>
      <point x="1150" y="883"/>
      <point x="1191" y="896"/>
      <point x="1224" y="980" type="curve" smooth="yes"/>
      <point x="1256" y="1061"/>
      <point x="1238" y="1099"/>
      <point x="1198" y="1122" type="curve" smooth="yes"/>
      <point x="1101" y="1178"/>
      <point x="985" y="1209"/>
      <point x="852" y="1209" type="curve" smooth="yes"/>
    </contour>
    <contour>
      <point x="166" y="532" type="line" smooth="yes"/>
      <point x="121" y="532"/>
      <point x="100" y="513"/>
      <point x="86" y="434" type="curve" smooth="yes"/>
      <point x="72" y="355"/>
      <point x="87" y="337"/>
      <point x="132" y="337" type="curve" smooth="yes"/>
      <point x="764" y="337" type="line" smooth="yes"/>
      <point x="809" y="337"/>
      <point x="830" y="355"/>
      <point x="844" y="434" type="curve" smooth="yes"/>
      <point x="858" y="513"/>
      <point x="843" y="532"/>
      <point x="798" y="532" type="curve" smooth="yes"/>
    </contour>
    <contour>
      <point x="222" y="850" type="line" smooth="yes"/>
      <point x="177" y="850"/>
      <point x="156" y="831"/>
      <point x="142" y="752" type="curve" smooth="yes"/>
      <point x="128" y="673"/>
      <point x="143" y="655"/>
      <point x="188" y="655" type="curve" smooth="yes"/>
      <point x="820" y="655" type="line" smooth="yes"/>
      <point x="865" y="655"/>
      <point x="886" y="673"/>
      <point x="900" y="752" type="curve" smooth="yes"/>
      <point x="914" y="832"/>
      <point x="899" y="850"/>
      <point x="854" y="850" type="curve" smooth="yes"/>
    </contour>
  </outline>
</glyph>
<glyph name="notequal" format="1">
  <advance width="1228"/>
  <unicode hex="2260"/>
  <outline>
    <contour>
      <point x="952" y="1130"/>
      <point x="916" y="1124"/>
      <point x="887" y="1083" type="curve" smooth="yes"/>
      <point x="246" y="169" type="line" smooth="yes"/>
      <point x="218" y="130"/>
      <point x="221" y="105"/>
      <point x="281" y="70" type="curve" smooth="yes"/>
      <point x="342" y="35"/>
      <point x="377" y="42"/>
      <point x="405" y="82" type="curve" smooth="yes"/>
      <point x="1046" y="995" type="line" smooth="yes"/>
      <point x="1074" y="1035"/>
      <point x="1071" y="1059"/>
      <point x="1012" y="1095" type="curve" smooth="yes"/>
    </contour>
    <component base="equal"/>
  </outline>
</glyph>
<glyph name="fi" format="1">
  <advance width="1228"/>
  <unicode hex="FB01"/>
  <outline>
    <contour>
      <point x="565" y="924" type="line"/>
      <point x="568" y="944" type="line" smooth="yes"/>
      <point x="582" y="1038"/>
      <point x="642" y="1080"/>
      <point x="724" y="1080" type="curve" smooth="yes"/>
      <point x="788" y="1080"/>
      <point x="866" y="1066"/>
      <point x="946" y="1043" type="curve" smooth="yes"/>
      <point x="987" y="1031"/>
      <point x="1018" y="1043"/>
      <point x="1047" y="1124" type="curve" smooth="yes"/>
      <point x="1077" y="1207"/>
      <point x="1059" y="1243"/>
      <point x="1016" y="1260" type="curve" smooth="yes"/>
      <point x="918" y="1298"/>
      <point x="815" y="1317"/>
      <point x="722" y="1317" type="curve" smooth="yes"/>
      <point x="490" y="1317"/>
      <point x="361" y="1186"/>
      <point x="319" y="947" type="curve" smooth="yes"/>
      <point x="315" y="924" type="line"/>
      <point x="192" y="924" type="line" smooth="yes"/>
      <point x="147" y="924"/>
      <point x="124" y="900"/>
      <point x="109" y="811" type="curve" smooth="yes"/>
      <point x="94" y="722"/>
      <point x="107" y="699"/>
      <point x="152" y="699" type="curve" smooth="yes"/>
      <point x="275" y="699" type="line"/>
      <point x="95" y="-330" type="line" smooth="yes"/>
      <point x="87" y="-375"/>
      <point x="102" y="-393"/>
      <point x="147" y="-393" type="curve" smooth="yes"/>
      <point x="271" y="-393" type="line" smooth="yes"/>
      <point x="316" y="-393"/>
      <point x="337" y="-375"/>
      <point x="345" y="-330" type="curve" smooth="yes"/>
      <point x="525" y="699" type="line"/>
      <point x="876" y="699" type="line"/>
      <point x="764" y="63" type="line" smooth="yes"/>
      <point x="756" y="18"/>
      <point x="771" y="0"/>
      <point x="816" y="0" type="curve" smooth="yes"/>
      <point x="940" y="0" type="line" smooth="yes"/>
      <point x="985" y="0"/>
      <point x="1006" y="18"/>
      <point x="1014" y="63" type="curve" smooth="yes"/>
      <point x="1154" y="861" type="line" smooth="yes"/>
      <point x="1162" y="906"/>
      <point x="1147" y="924"/>
      <point x="1102" y="924" type="curve" smooth="yes"/>
    </contour>
  </outline>
</glyph>
<glyph name="fl" format="1">
  <advance width="1228"/>
  <unicode hex="FB02"/>
  <outline>
    <contour>
      <point x="731" y="1312" type="line" smooth="yes"/>
      <point x="509" y="1312"/>
      <point x="364" y="1196"/>
      <point x="325" y="977" type="curve" smooth="yes"/>
      <point x="95" y="-330" type="line" smooth="yes"/>
      <point x="87" y="-375"/>
      <point x="102" y="-393"/>
      <point x="147" y="-393" type="curve" smooth="yes"/>
      <point x="271" y="-393" type="line" smooth="yes"/>
      <point x="316" y="-393"/>
      <point x="337" y="-375"/>
      <point x="345" y="-330" type="curve" smooth="yes"/>
      <point x="570" y="951" type="line" smooth="yes"/>
      <point x="587" y="1046"/>
      <point x="641" y="1087"/>
      <point x="723" y="1087" type="curve" smooth="yes"/>
      <point x="944" y="1087" type="line"/>
      <point x="764" y="63" type="line" smooth="yes"/>
      <point x="756" y="18"/>
      <point x="771" y="0"/>
      <point x="816" y="0" type="curve" smooth="yes"/>
      <point x="940" y="0" type="line" smooth="yes"/>
      <point x="985" y="0"/>
      <point x="1006" y="18"/>
      <point x="1014" y="63" type="curve" smooth="yes"/>
      <point x="1223" y="1249" type="line" smooth="yes"/>
      <point x="1231" y="1294"/>
      <point x="1216" y="1312"/>
      <point x="1171" y="1312" type="curve" smooth="yes"/>
    </contour>
    <contour>
      <point x="676" y="639" type="line" smooth="yes"/>
      <point x="721" y="639"/>
      <point x="744" y="662"/>
      <point x="759" y="751" type="curve" smooth="yes"/>
      <point x="774" y="840"/>
      <point x="761" y="864"/>
      <point x="716" y="864" type="curve" smooth="yes"/>
      <point x="182" y="864" type="line" smooth="yes"/>
      <point x="137" y="864"/>
      <point x="114" y="840"/>
      <point x="99" y="751" type="curve" smooth="yes"/>
      <point x="84" y="662"/>
      <point x="97" y="639"/>
      <point x="142" y="639" type="curve" smooth="yes"/>
    </contour>
  </outline>
</glyph>
